{
	"asset":{
		"generator":"Khronos glTF Blender I/O v4.0.44",
		"version":"2.0"
	},
	"scene":0,
	"scenes":[
		{
			"name":"Scene",
			"nodes":[
				6
			]
		}
	],
	"nodes":[
		{
			"mesh":0,
			"name":"ant01.001_ant01.008_NormalOnly_0"
		},
		{
			"mesh":1,
			"name":"ant01.001_ant01.008_NormalOnly_0.001"
		},
		{
			"mesh":2,
			"name":"ant01.001_Material.004_0"
		},
		{
			"children":[
				0,
				1,
				2
			],
			"name":"ant01.001",
			"rotation":[
				-0.70710688829422,
				0,
				0,
				0.7071066498756409
			],
			"scale":[
				100,
				100,
				100
			],
			"translation":[
				176.90200805664062,
				10.028447151184082,
				144.75296020507812
			]
		},
		{
			"children":[
				3
			],
			"name":"RootNode",
			"translation":[
				1.526188680145424e-05,
				0,
				0
			]
		},
		{
			"children":[
				4
			],
			"name":"terrain txa.fbx",
			"rotation":[
				0.70710688829422,
				0,
				0,
				0.7071066498756409
			],
			"scale":[
				0.009999999776482582,
				0.010000000707805157,
				0.010000000707805157
			]
		},
		{
			"children":[
				5
			],
			"name":"Sketchfab_model",
			"rotation":[
				-0.4705233573913574,
				-0.527833104133606,
				-0.527833104133606,
				0.4705233573913574
			],
			"scale":[
				-317.3924865722656,
				-317.3925476074219,
				-317.3925476074219
			],
			"translation":[
				-518.0775756835938,
				-0.3157482147216797,
				502.5465087890625
			]
		}
	],
	"materials":[
		{
			"doubleSided":true,
			"name":"ant01.008_NormalOnly",
			"pbrMetallicRoughness":{
				"baseColorTexture":{
					"index":0
				},
				"metallicFactor":0
			}
		},
		{
			"doubleSided":true,
			"name":"Material.004",
			"pbrMetallicRoughness":{
				"baseColorTexture":{
					"index":1
				},
				"metallicFactor":0,
				"roughnessFactor":0.8211145401000977
			}
		}
	],
	"meshes":[
		{
			"name":"ant01.001_ant01.008_NormalOnly_0",
			"primitives":[
				{
					"attributes":{
						"POSITION":0,
						"NORMAL":1,
						"TEXCOORD_0":2
					},
					"indices":3,
					"material":0
				}
			]
		},
		{
			"name":"ant01.001_ant01.008_NormalOnly_0.001",
			"primitives":[
				{
					"attributes":{
						"POSITION":4,
						"NORMAL":5,
						"TEXCOORD_0":6
					},
					"indices":7,
					"material":0
				}
			]
		},
		{
			"name":"ant01.001_Material.004_0",
			"primitives":[
				{
					"attributes":{
						"POSITION":8,
						"NORMAL":9,
						"TEXCOORD_0":10
					},
					"indices":11,
					"material":1
				}
			]
		}
	],
	"textures":[
		{
			"sampler":0,
			"source":0
		},
		{
			"sampler":0,
			"source":1
		}
	],
	"images":[
		{
			"mimeType":"image/jpeg",
			"name":"ant01.008_NormalOnly_baseColor",
			"uri":"ant01_008_NormalOnly_baseColor.jpg"
		},
		{
			"mimeType":"image/jpeg",
			"name":"Material.004_baseColor",
			"uri":"Material_004_baseColor.jpg"
		}
	],
	"accessors":[
		{
			"bufferView":0,
			"componentType":5126,
			"count":65762,
			"max":[
				3.5934839248657227,
				2.717529773712158,
				0.2867394685745239
			],
			"min":[
				-3.5640201568603516,
				-2.719425678253174,
				-0.10028447955846786
			],
			"type":"VEC3"
		},
		{
			"bufferView":1,
			"componentType":5126,
			"count":65762,
			"type":"VEC3"
		},
		{
			"bufferView":2,
			"componentType":5126,
			"count":65762,
			"type":"VEC2"
		},
		{
			"bufferView":3,
			"componentType":5125,
			"count":387015,
			"type":"SCALAR"
		},
		{
			"bufferView":4,
			"componentType":5126,
			"count":1125,
			"max":[
				0.025980234146118164,
				2.717529535293579,
				0.02033626288175583
			],
			"min":[
				-3.535973072052002,
				0.1775292158126831,
				-0.10028446465730667
			],
			"type":"VEC3"
		},
		{
			"bufferView":5,
			"componentType":5126,
			"count":1125,
			"type":"VEC3"
		},
		{
			"bufferView":6,
			"componentType":5126,
			"count":1125,
			"type":"VEC2"
		},
		{
			"bufferView":7,
			"componentType":5123,
			"count":6201,
			"type":"SCALAR"
		},
		{
			"bufferView":8,
			"componentType":5126,
			"count":584,
			"max":[
				3.5934839248657227,
				0.1775294542312622,
				-0.09945238381624222
			],
			"min":[
				-3.5640201568603516,
				-0.17942535877227783,
				-0.10028447955846786
			],
			"type":"VEC3"
		},
		{
			"bufferView":9,
			"componentType":5126,
			"count":584,
			"type":"VEC3"
		},
		{
			"bufferView":10,
			"componentType":5126,
			"count":584,
			"type":"VEC2"
		},
		{
			"bufferView":11,
			"componentType":5123,
			"count":1536,
			"type":"SCALAR"
		}
	],
	"bufferViews":[
		{
			"buffer":0,
			"byteLength":789144,
			"byteOffset":0,
			"target":34962
		},
		{
			"buffer":0,
			"byteLength":789144,
			"byteOffset":789144,
			"target":34962
		},
		{
			"buffer":0,
			"byteLength":526096,
			"byteOffset":1578288,
			"target":34962
		},
		{
			"buffer":0,
			"byteLength":1548060,
			"byteOffset":2104384,
			"target":34963
		},
		{
			"buffer":0,
			"byteLength":13500,
			"byteOffset":3652444,
			"target":34962
		},
		{
			"buffer":0,
			"byteLength":13500,
			"byteOffset":3665944,
			"target":34962
		},
		{
			"buffer":0,
			"byteLength":9000,
			"byteOffset":3679444,
			"target":34962
		},
		{
			"buffer":0,
			"byteLength":12402,
			"byteOffset":3688444,
			"target":34963
		},
		{
			"buffer":0,
			"byteLength":7008,
			"byteOffset":3700848,
			"target":34962
		},
		{
			"buffer":0,
			"byteLength":7008,
			"byteOffset":3707856,
			"target":34962
		},
		{
			"buffer":0,
			"byteLength":4672,
			"byteOffset":3714864,
			"target":34962
		},
		{
			"buffer":0,
			"byteLength":3072,
			"byteOffset":3719536,
			"target":34963
		}
	],
	"samplers":[
		{
			"magFilter":9729,
			"minFilter":9987
		}
	],
	"buffers":[
		{
			"byteLength":3722608,
			"uri":"untitled.bin"
		}
	]
}
