{
	"asset":{
		"generator":"Khronos glTF Blender I/O v4.0.44",
		"version":"2.0"
	},
	"extensionsUsed":[
		"KHR_materials_unlit"
	],
	"scene":0,
	"scenes":[
		{
			"name":"Scene",
			"nodes":[
				16
			]
		}
	],
	"nodes":[
		{
			"mesh":0,
			"name":"mesh_out_node_texture_material_0",
			"translation":[
				-4.504899152379949e-06,
				2.380240948696155e-05,
				5.7110055422526784e-06
			]
		},
		{
			"mesh":1,
			"name":"mesh_out_node_texture_material_0.001",
			"translation":[
				-4.504899152379949e-06,
				2.380240948696155e-05,
				5.7110055422526784e-06
			]
		},
		{
			"mesh":2,
			"name":"mesh_out_node_texture_material_0.002",
			"translation":[
				-4.504899152379949e-06,
				2.380240948696155e-05,
				5.7110055422526784e-06
			]
		},
		{
			"mesh":3,
			"name":"mesh_out_node_texture_material_0.003",
			"translation":[
				-4.504899152379949e-06,
				2.380240948696155e-05,
				5.7110055422526784e-06
			]
		},
		{
			"mesh":4,
			"name":"mesh_out_node_texture_material_0.004",
			"translation":[
				-4.504899152379949e-06,
				2.380240948696155e-05,
				5.7110055422526784e-06
			]
		},
		{
			"mesh":5,
			"name":"mesh_out_node_texture_material_0.005",
			"translation":[
				-4.504899152379949e-06,
				2.380240948696155e-05,
				5.7110055422526784e-06
			]
		},
		{
			"mesh":6,
			"name":"mesh_out_node_texture_material_0.006",
			"translation":[
				-4.504899152379949e-06,
				2.380240948696155e-05,
				5.7110055422526784e-06
			]
		},
		{
			"mesh":7,
			"name":"mesh_out_node_texture_material_0.007",
			"translation":[
				-4.504899152379949e-06,
				2.380240948696155e-05,
				5.7110055422526784e-06
			]
		},
		{
			"mesh":8,
			"name":"mesh_out_node_texture_material_0.008",
			"translation":[
				-4.504899152379949e-06,
				2.380240948696155e-05,
				5.7110055422526784e-06
			]
		},
		{
			"mesh":9,
			"name":"mesh_out_node_texture_material_0.009",
			"translation":[
				-4.504899152379949e-06,
				2.380240948696155e-05,
				5.7110055422526784e-06
			]
		},
		{
			"mesh":10,
			"name":"mesh_out_node_texture_material_0.010",
			"translation":[
				-4.504899152379949e-06,
				2.380240948696155e-05,
				5.7110055422526784e-06
			]
		},
		{
			"mesh":11,
			"name":"mesh_out_node_texture_material_0.011",
			"translation":[
				-4.504899152379949e-06,
				2.380240948696155e-05,
				5.7110055422526784e-06
			]
		},
		{
			"mesh":12,
			"name":"mesh_out_node_texture_material_0.012",
			"translation":[
				-4.504899152379949e-06,
				2.380240948696155e-05,
				5.7110055422526784e-06
			]
		},
		{
			"children":[
				0,
				1,
				2,
				3,
				4,
				5,
				6,
				7,
				8,
				9,
				10,
				11,
				12
			],
			"name":"mesh_out_node",
			"translation":[
				-4.504899152379949e-06,
				2.380240948696155e-05,
				5.7110055422526784e-06
			]
		},
		{
			"children":[
				13
			],
			"name":"RootNode",
			"translation":[
				-4.504899152379949e-06,
				2.380240948696155e-05,
				5.7110055422526784e-06
			]
		},
		{
			"children":[
				14
			],
			"name":"d5a1fd6243874670ba79d393cc1d4b19.fbx",
			"rotation":[
				1,
				0,
				0,
				8.470329472543003e-22
			],
			"translation":[
				-4.504899152379949e-06,
				-2.380240948696155e-05,
				-5.7110055422526784e-06
			]
		},
		{
			"children":[
				15
			],
			"name":"Sketchfab_model",
			"rotation":[
				0.5,
				0.5000000596046448,
				-0.5000001192092896,
				0.5
			],
			"scale":[
				0.6450091600418091,
				0.6450091600418091,
				0.6450091600418091
			],
			"translation":[
				-92.94107818603516,
				47.806495666503906,
				-100.7281494140625
			]
		}
	],
	"materials":[
		{
			"doubleSided":true,
			"extensions":{
				"KHR_materials_unlit":{}
			},
			"name":"texture_material",
			"pbrMetallicRoughness":{
				"baseColorTexture":{
					"index":0
				},
				"metallicFactor":0,
				"roughnessFactor":0.9
			}
		}
	],
	"meshes":[
		{
			"name":"mesh_out_node_texture_material_0",
			"primitives":[
				{
					"attributes":{
						"POSITION":0,
						"NORMAL":1,
						"TEXCOORD_0":2
					},
					"indices":3,
					"material":0
				}
			]
		},
		{
			"name":"mesh_out_node_texture_material_0.001",
			"primitives":[
				{
					"attributes":{
						"POSITION":4,
						"NORMAL":5,
						"TEXCOORD_0":6
					},
					"indices":7,
					"material":0
				}
			]
		},
		{
			"name":"mesh_out_node_texture_material_0.002",
			"primitives":[
				{
					"attributes":{
						"POSITION":8,
						"NORMAL":9,
						"TEXCOORD_0":10
					},
					"indices":11,
					"material":0
				}
			]
		},
		{
			"name":"mesh_out_node_texture_material_0.003",
			"primitives":[
				{
					"attributes":{
						"POSITION":12,
						"NORMAL":13,
						"TEXCOORD_0":14
					},
					"indices":15,
					"material":0
				}
			]
		},
		{
			"name":"mesh_out_node_texture_material_0.004",
			"primitives":[
				{
					"attributes":{
						"POSITION":16,
						"NORMAL":17,
						"TEXCOORD_0":18
					},
					"indices":19,
					"material":0
				}
			]
		},
		{
			"name":"mesh_out_node_texture_material_0.005",
			"primitives":[
				{
					"attributes":{
						"POSITION":20,
						"NORMAL":21,
						"TEXCOORD_0":22
					},
					"indices":23,
					"material":0
				}
			]
		},
		{
			"name":"mesh_out_node_texture_material_0.006",
			"primitives":[
				{
					"attributes":{
						"POSITION":24,
						"NORMAL":25,
						"TEXCOORD_0":26
					},
					"indices":27,
					"material":0
				}
			]
		},
		{
			"name":"mesh_out_node_texture_material_0.007",
			"primitives":[
				{
					"attributes":{
						"POSITION":28,
						"NORMAL":29,
						"TEXCOORD_0":30
					},
					"indices":31,
					"material":0
				}
			]
		},
		{
			"name":"mesh_out_node_texture_material_0.008",
			"primitives":[
				{
					"attributes":{
						"POSITION":32,
						"NORMAL":33,
						"TEXCOORD_0":34
					},
					"indices":35,
					"material":0
				}
			]
		},
		{
			"name":"mesh_out_node_texture_material_0.009",
			"primitives":[
				{
					"attributes":{
						"POSITION":36,
						"NORMAL":37,
						"TEXCOORD_0":38
					},
					"indices":39,
					"material":0
				}
			]
		},
		{
			"name":"mesh_out_node_texture_material_0.010",
			"primitives":[
				{
					"attributes":{
						"POSITION":40,
						"NORMAL":41,
						"TEXCOORD_0":42
					},
					"indices":43,
					"material":0
				}
			]
		},
		{
			"name":"mesh_out_node_texture_material_0.011",
			"primitives":[
				{
					"attributes":{
						"POSITION":44,
						"NORMAL":45,
						"TEXCOORD_0":46
					},
					"indices":47,
					"material":0
				}
			]
		},
		{
			"name":"mesh_out_node_texture_material_0.012",
			"primitives":[
				{
					"attributes":{
						"POSITION":48,
						"NORMAL":49,
						"TEXCOORD_0":50
					},
					"indices":51,
					"material":0
				}
			]
		}
	],
	"textures":[
		{
			"sampler":0,
			"source":0
		}
	],
	"images":[
		{
			"mimeType":"image/jpeg",
			"name":"texture_material_baseColor",
			"uri":"texture_material_baseColor.jpg"
		}
	],
	"accessors":[
		{
			"bufferView":0,
			"componentType":5126,
			"count":65649,
			"max":[
				202.1023712158203,
				90.4590072631836,
				-23.466028213500977
			],
			"min":[
				-237.40890502929688,
				-191.51181030273438,
				-88.77306365966797
			],
			"type":"VEC3"
		},
		{
			"bufferView":1,
			"componentType":5126,
			"count":65649,
			"type":"VEC3"
		},
		{
			"bufferView":2,
			"componentType":5126,
			"count":65649,
			"type":"VEC2"
		},
		{
			"bufferView":3,
			"componentType":5125,
			"count":253728,
			"type":"SCALAR"
		},
		{
			"bufferView":4,
			"componentType":5126,
			"count":65695,
			"max":[
				201.9178924560547,
				89.92610168457031,
				-25.43162727355957
			],
			"min":[
				-237.41998291015625,
				-182.9672393798828,
				-89.72028350830078
			],
			"type":"VEC3"
		},
		{
			"bufferView":5,
			"componentType":5126,
			"count":65695,
			"type":"VEC3"
		},
		{
			"bufferView":6,
			"componentType":5126,
			"count":65695,
			"type":"VEC2"
		},
		{
			"bufferView":7,
			"componentType":5125,
			"count":223950,
			"type":"SCALAR"
		},
		{
			"bufferView":8,
			"componentType":5126,
			"count":65759,
			"max":[
				192.6628875732422,
				84.55178833007812,
				-26.17881965637207
			],
			"min":[
				-230.6908721923828,
				-179.65936279296875,
				-89.38394165039062
			],
			"type":"VEC3"
		},
		{
			"bufferView":9,
			"componentType":5126,
			"count":65759,
			"type":"VEC3"
		},
		{
			"bufferView":10,
			"componentType":5126,
			"count":65759,
			"type":"VEC2"
		},
		{
			"bufferView":11,
			"componentType":5125,
			"count":221670,
			"type":"SCALAR"
		},
		{
			"bufferView":12,
			"componentType":5126,
			"count":65762,
			"max":[
				223.7297821044922,
				78.44337463378906,
				-26.390302658081055
			],
			"min":[
				-234.70770263671875,
				-197.06292724609375,
				-89.73646545410156
			],
			"type":"VEC3"
		},
		{
			"bufferView":13,
			"componentType":5126,
			"count":65762,
			"type":"VEC3"
		},
		{
			"bufferView":14,
			"componentType":5126,
			"count":65762,
			"type":"VEC2"
		},
		{
			"bufferView":15,
			"componentType":5125,
			"count":237507,
			"type":"SCALAR"
		},
		{
			"bufferView":16,
			"componentType":5126,
			"count":65682,
			"max":[
				219.55258178710938,
				176.9455108642578,
				-24.699607849121094
			],
			"min":[
				-236.02610778808594,
				-201.07936096191406,
				-91.03975677490234
			],
			"type":"VEC3"
		},
		{
			"bufferView":17,
			"componentType":5126,
			"count":65682,
			"type":"VEC3"
		},
		{
			"bufferView":18,
			"componentType":5126,
			"count":65682,
			"type":"VEC2"
		},
		{
			"bufferView":19,
			"componentType":5125,
			"count":235857,
			"type":"SCALAR"
		},
		{
			"bufferView":20,
			"componentType":5126,
			"count":65664,
			"max":[
				201.66366577148438,
				228.2322998046875,
				-24.652162551879883
			],
			"min":[
				-235.26539611816406,
				-203.99327087402344,
				-92.17041015625
			],
			"type":"VEC3"
		},
		{
			"bufferView":21,
			"componentType":5126,
			"count":65664,
			"type":"VEC3"
		},
		{
			"bufferView":22,
			"componentType":5126,
			"count":65664,
			"type":"VEC2"
		},
		{
			"bufferView":23,
			"componentType":5125,
			"count":259017,
			"type":"SCALAR"
		},
		{
			"bufferView":24,
			"componentType":5126,
			"count":65683,
			"max":[
				175.7333526611328,
				223.55438232421875,
				-27.8955135345459
			],
			"min":[
				-237.41998291015625,
				-239.627685546875,
				-92.05609130859375
			],
			"type":"VEC3"
		},
		{
			"bufferView":25,
			"componentType":5126,
			"count":65683,
			"type":"VEC3"
		},
		{
			"bufferView":26,
			"componentType":5126,
			"count":65683,
			"type":"VEC2"
		},
		{
			"bufferView":27,
			"componentType":5125,
			"count":262758,
			"type":"SCALAR"
		},
		{
			"bufferView":28,
			"componentType":5126,
			"count":65655,
			"max":[
				198.91241455078125,
				124.52863311767578,
				-24.01398468017578
			],
			"min":[
				-209.48046875,
				-252.14279174804688,
				-95.26778411865234
			],
			"type":"VEC3"
		},
		{
			"bufferView":29,
			"componentType":5126,
			"count":65655,
			"type":"VEC3"
		},
		{
			"bufferView":30,
			"componentType":5126,
			"count":65655,
			"type":"VEC2"
		},
		{
			"bufferView":31,
			"componentType":5125,
			"count":252129,
			"type":"SCALAR"
		},
		{
			"bufferView":32,
			"componentType":5126,
			"count":65706,
			"max":[
				195.3539581298828,
				110.98754119873047,
				-24.324811935424805
			],
			"min":[
				-205.89031982421875,
				-260.0065612792969,
				-95.10578918457031
			],
			"type":"VEC3"
		},
		{
			"bufferView":33,
			"componentType":5126,
			"count":65706,
			"type":"VEC3"
		},
		{
			"bufferView":34,
			"componentType":5126,
			"count":65706,
			"type":"VEC2"
		},
		{
			"bufferView":35,
			"componentType":5125,
			"count":225651,
			"type":"SCALAR"
		},
		{
			"bufferView":36,
			"componentType":5126,
			"count":65668,
			"max":[
				185.7034912109375,
				101.26577758789062,
				-23.49324607849121
			],
			"min":[
				-191.8258514404297,
				-261.4477844238281,
				-95.78556823730469
			],
			"type":"VEC3"
		},
		{
			"bufferView":37,
			"componentType":5126,
			"count":65668,
			"type":"VEC3"
		},
		{
			"bufferView":38,
			"componentType":5126,
			"count":65668,
			"type":"VEC2"
		},
		{
			"bufferView":39,
			"componentType":5125,
			"count":225642,
			"type":"SCALAR"
		},
		{
			"bufferView":40,
			"componentType":5126,
			"count":65770,
			"max":[
				200.95745849609375,
				167.4695281982422,
				-24.36097526550293
			],
			"min":[
				-209.70816040039062,
				-249.70602416992188,
				-92.93682098388672
			],
			"type":"VEC3"
		},
		{
			"bufferView":41,
			"componentType":5126,
			"count":65770,
			"type":"VEC3"
		},
		{
			"bufferView":42,
			"componentType":5126,
			"count":65770,
			"type":"VEC2"
		},
		{
			"bufferView":43,
			"componentType":5125,
			"count":224379,
			"type":"SCALAR"
		},
		{
			"bufferView":44,
			"componentType":5126,
			"count":65781,
			"max":[
				196.5972137451172,
				175.7919464111328,
				-24.82270622253418
			],
			"min":[
				-217.33447265625,
				-215.53805541992188,
				-89.86558532714844
			],
			"type":"VEC3"
		},
		{
			"bufferView":45,
			"componentType":5126,
			"count":65781,
			"type":"VEC3"
		},
		{
			"bufferView":46,
			"componentType":5126,
			"count":65781,
			"type":"VEC2"
		},
		{
			"bufferView":47,
			"componentType":5125,
			"count":224781,
			"type":"SCALAR"
		},
		{
			"bufferView":48,
			"componentType":5126,
			"count":54672,
			"max":[
				196.30101013183594,
				217.5240936279297,
				-28.12496566772461
			],
			"min":[
				-233.1971893310547,
				-206.38075256347656,
				-89.16958618164062
			],
			"type":"VEC3"
		},
		{
			"bufferView":49,
			"componentType":5126,
			"count":54672,
			"type":"VEC3"
		},
		{
			"bufferView":50,
			"componentType":5126,
			"count":54672,
			"type":"VEC2"
		},
		{
			"bufferView":51,
			"componentType":5123,
			"count":152931,
			"type":"SCALAR"
		}
	],
	"bufferViews":[
		{
			"buffer":0,
			"byteLength":787788,
			"byteOffset":0,
			"target":34962
		},
		{
			"buffer":0,
			"byteLength":787788,
			"byteOffset":787788,
			"target":34962
		},
		{
			"buffer":0,
			"byteLength":525192,
			"byteOffset":1575576,
			"target":34962
		},
		{
			"buffer":0,
			"byteLength":1014912,
			"byteOffset":2100768,
			"target":34963
		},
		{
			"buffer":0,
			"byteLength":788340,
			"byteOffset":3115680,
			"target":34962
		},
		{
			"buffer":0,
			"byteLength":788340,
			"byteOffset":3904020,
			"target":34962
		},
		{
			"buffer":0,
			"byteLength":525560,
			"byteOffset":4692360,
			"target":34962
		},
		{
			"buffer":0,
			"byteLength":895800,
			"byteOffset":5217920,
			"target":34963
		},
		{
			"buffer":0,
			"byteLength":789108,
			"byteOffset":6113720,
			"target":34962
		},
		{
			"buffer":0,
			"byteLength":789108,
			"byteOffset":6902828,
			"target":34962
		},
		{
			"buffer":0,
			"byteLength":526072,
			"byteOffset":7691936,
			"target":34962
		},
		{
			"buffer":0,
			"byteLength":886680,
			"byteOffset":8218008,
			"target":34963
		},
		{
			"buffer":0,
			"byteLength":789144,
			"byteOffset":9104688,
			"target":34962
		},
		{
			"buffer":0,
			"byteLength":789144,
			"byteOffset":9893832,
			"target":34962
		},
		{
			"buffer":0,
			"byteLength":526096,
			"byteOffset":10682976,
			"target":34962
		},
		{
			"buffer":0,
			"byteLength":950028,
			"byteOffset":11209072,
			"target":34963
		},
		{
			"buffer":0,
			"byteLength":788184,
			"byteOffset":12159100,
			"target":34962
		},
		{
			"buffer":0,
			"byteLength":788184,
			"byteOffset":12947284,
			"target":34962
		},
		{
			"buffer":0,
			"byteLength":525456,
			"byteOffset":13735468,
			"target":34962
		},
		{
			"buffer":0,
			"byteLength":943428,
			"byteOffset":14260924,
			"target":34963
		},
		{
			"buffer":0,
			"byteLength":787968,
			"byteOffset":15204352,
			"target":34962
		},
		{
			"buffer":0,
			"byteLength":787968,
			"byteOffset":15992320,
			"target":34962
		},
		{
			"buffer":0,
			"byteLength":525312,
			"byteOffset":16780288,
			"target":34962
		},
		{
			"buffer":0,
			"byteLength":1036068,
			"byteOffset":17305600,
			"target":34963
		},
		{
			"buffer":0,
			"byteLength":788196,
			"byteOffset":18341668,
			"target":34962
		},
		{
			"buffer":0,
			"byteLength":788196,
			"byteOffset":19129864,
			"target":34962
		},
		{
			"buffer":0,
			"byteLength":525464,
			"byteOffset":19918060,
			"target":34962
		},
		{
			"buffer":0,
			"byteLength":1051032,
			"byteOffset":20443524,
			"target":34963
		},
		{
			"buffer":0,
			"byteLength":787860,
			"byteOffset":21494556,
			"target":34962
		},
		{
			"buffer":0,
			"byteLength":787860,
			"byteOffset":22282416,
			"target":34962
		},
		{
			"buffer":0,
			"byteLength":525240,
			"byteOffset":23070276,
			"target":34962
		},
		{
			"buffer":0,
			"byteLength":1008516,
			"byteOffset":23595516,
			"target":34963
		},
		{
			"buffer":0,
			"byteLength":788472,
			"byteOffset":24604032,
			"target":34962
		},
		{
			"buffer":0,
			"byteLength":788472,
			"byteOffset":25392504,
			"target":34962
		},
		{
			"buffer":0,
			"byteLength":525648,
			"byteOffset":26180976,
			"target":34962
		},
		{
			"buffer":0,
			"byteLength":902604,
			"byteOffset":26706624,
			"target":34963
		},
		{
			"buffer":0,
			"byteLength":788016,
			"byteOffset":27609228,
			"target":34962
		},
		{
			"buffer":0,
			"byteLength":788016,
			"byteOffset":28397244,
			"target":34962
		},
		{
			"buffer":0,
			"byteLength":525344,
			"byteOffset":29185260,
			"target":34962
		},
		{
			"buffer":0,
			"byteLength":902568,
			"byteOffset":29710604,
			"target":34963
		},
		{
			"buffer":0,
			"byteLength":789240,
			"byteOffset":30613172,
			"target":34962
		},
		{
			"buffer":0,
			"byteLength":789240,
			"byteOffset":31402412,
			"target":34962
		},
		{
			"buffer":0,
			"byteLength":526160,
			"byteOffset":32191652,
			"target":34962
		},
		{
			"buffer":0,
			"byteLength":897516,
			"byteOffset":32717812,
			"target":34963
		},
		{
			"buffer":0,
			"byteLength":789372,
			"byteOffset":33615328,
			"target":34962
		},
		{
			"buffer":0,
			"byteLength":789372,
			"byteOffset":34404700,
			"target":34962
		},
		{
			"buffer":0,
			"byteLength":526248,
			"byteOffset":35194072,
			"target":34962
		},
		{
			"buffer":0,
			"byteLength":899124,
			"byteOffset":35720320,
			"target":34963
		},
		{
			"buffer":0,
			"byteLength":656064,
			"byteOffset":36619444,
			"target":34962
		},
		{
			"buffer":0,
			"byteLength":656064,
			"byteOffset":37275508,
			"target":34962
		},
		{
			"buffer":0,
			"byteLength":437376,
			"byteOffset":37931572,
			"target":34962
		},
		{
			"buffer":0,
			"byteLength":305862,
			"byteOffset":38368948,
			"target":34963
		}
	],
	"samplers":[
		{
			"magFilter":9729,
			"minFilter":9987
		}
	],
	"buffers":[
		{
			"byteLength":38674812,
			"uri":"scene.bin"
		}
	]
}
