{
  "accessors": [
    {
      "bufferView": 2,
      "componentType": 5126,
      "count": 65532,
      "max": [
        104.23698425292969,
        102.6031494140625,
        9.886374473571777
      ],
      "min": [
        -19.001962661743164,
        12.347330093383789,
        -3.4247207641601563
      ],
      "type": "VEC3"
    },
    {
      "bufferView": 2,
      "byteOffset": 786384,
      "componentType": 5126,
      "count": 65532,
      "max": [
        0.9999158382415771,
        0.9999565482139587,
        0.9995858669281006
      ],
      "min": [
        -0.9999986290931702,
        -0.9999017715454102,
        -1.0
      ],
      "type": "VEC3"
    },
    {
      "bufferView": 1,
      "componentType": 5126,
      "count": 65532,
      "max": [
        0.9994320869445801,
        0.9939467310905457
      ],
      "min": [
        0.0010094125755131245,
        0.008902261033654213
      ],
      "type": "VEC2"
    },
    {
      "bufferView": 0,
      "componentType": 5125,
      "count": 347802,
      "type": "SCALAR"
    },
    {
      "bufferView": 2,
      "byteOffset": 1572768,
      "componentType": 5126,
      "count": 65532,
      "max": [
        54.40615463256836,
        101.2844467163086,
        9.211902618408203
      ],
      "min": [
        -39.46031951904297,
        5.330703258514404,
        2.2225608825683594
      ],
      "type": "VEC3"
    },
    {
      "bufferView": 2,
      "byteOffset": 2359152,
      "componentType": 5126,
      "count": 65532,
      "max": [
        0.9999973773956299,
        0.9999977350234985,
        0.9957785606384277
      ],
      "min": [
        -0.9999969005584717,
        -0.9999796152114868,
        -1.0
      ],
      "type": "VEC3"
    },
    {
      "bufferView": 1,
      "byteOffset": 524256,
      "componentType": 5126,
      "count": 65532,
      "max": [
        0.9996075630187988,
        0.9960094094276428
      ],
      "min": [
        0.0016261979471892118,
        0.0044167316518723965
      ],
      "type": "VEC2"
    },
    {
      "bufferView": 0,
      "byteOffset": 1391208,
      "componentType": 5125,
      "count": 350388,
      "type": "SCALAR"
    },
    {
      "bufferView": 2,
      "byteOffset": 3145536,
      "componentType": 5126,
      "count": 65532,
      "max": [
        106.67974853515625,
        96.1562271118164,
        10.852472305297852
      ],
      "min": [
        -39.91970443725586,
        -34.95989227294922,
        1.10427987575531
      ],
      "type": "VEC3"
    },
    {
      "bufferView": 2,
      "byteOffset": 3931920,
      "componentType": 5126,
      "count": 65532,
      "max": [
        0.9997665882110596,
        0.9999880194664001,
        0.9989355802536011
      ],
      "min": [
        -0.9999934434890747,
        -0.9999344944953918,
        -0.9999998807907104
      ],
      "type": "VEC3"
    },
    {
      "bufferView": 1,
      "byteOffset": 1048512,
      "componentType": 5126,
      "count": 65532,
      "max": [
        0.9999176859855652,
        0.9943390488624573
      ],
      "min": [
        9.893905371427536e-05,
        0.0007127130520530045
      ],
      "type": "VEC2"
    },
    {
      "bufferView": 0,
      "byteOffset": 2792760,
      "componentType": 5125,
      "count": 350349,
      "type": "SCALAR"
    },
    {
      "bufferView": 2,
      "byteOffset": 4718304,
      "componentType": 5126,
      "count": 65532,
      "max": [
        100.43248748779297,
        67.61080169677734,
        11.54369068145752
      ],
      "min": [
        -29.974964141845703,
        -70.69678497314453,
        0.5787537693977356
      ],
      "type": "VEC3"
    },
    {
      "bufferView": 2,
      "byteOffset": 5504688,
      "componentType": 5126,
      "count": 65532,
      "max": [
        0.999963104724884,
        0.999997615814209,
        0.9772862792015076
      ],
      "min": [
        -0.9999998807907104,
        -0.9997450709342957,
        -0.9999998807907104
      ],
      "type": "VEC3"
    },
    {
      "bufferView": 1,
      "byteOffset": 1572768,
      "componentType": 5126,
      "count": 65532,
      "max": [
        0.9826799035072327,
        0.994496762752533
      ],
      "min": [
        0.038149718195199966,
        0.010341169312596321
      ],
      "type": "VEC2"
    },
    {
      "bufferView": 0,
      "byteOffset": 4194156,
      "componentType": 5125,
      "count": 356448,
      "type": "SCALAR"
    },
    {
      "bufferView": 2,
      "byteOffset": 6291072,
      "componentType": 5126,
      "count": 65532,
      "max": [
        104.15863037109375,
        72.93634796142578,
        8.322093963623047
      ],
      "min": [
        19.320383071899414,
        -7.978416442871094,
        -4.381796360015869
      ],
      "type": "VEC3"
    },
    {
      "bufferView": 2,
      "byteOffset": 7077456,
      "componentType": 5126,
      "count": 65532,
      "max": [
        0.9999280571937561,
        0.9999909400939941,
        0.9995212554931641
      ],
      "min": [
        -0.9999976754188538,
        -0.9999570846557617,
        -0.9999995231628418
      ],
      "type": "VEC3"
    },
    {
      "bufferView": 1,
      "byteOffset": 2097024,
      "componentType": 5126,
      "count": 65532,
      "max": [
        0.9999372959136963,
        0.9983533620834351
      ],
      "min": [
        2.461136318743229e-06,
        0.0005833375034853816
      ],
      "type": "VEC2"
    },
    {
      "bufferView": 0,
      "byteOffset": 5619948,
      "componentType": 5125,
      "count": 326361,
      "type": "SCALAR"
    },
    {
      "bufferView": 2,
      "byteOffset": 7863840,
      "componentType": 5126,
      "count": 65532,
      "max": [
        106.2320785522461,
        19.334285736083984,
        9.9745454788208
      ],
      "min": [
        -39.50727081298828,
        -11.338809967041016,
        -7.779263496398926
      ],
      "type": "VEC3"
    },
    {
      "bufferView": 2,
      "byteOffset": 8650224,
      "componentType": 5126,
      "count": 65532,
      "max": [
        0.9999815225601196,
        0.9999959468841553,
        0.9999626278877258
      ],
      "min": [
        -0.9999591112136841,
        -0.9999961256980896,
        -1.0
      ],
      "type": "VEC3"
    },
    {
      "bufferView": 1,
      "byteOffset": 2621280,
      "componentType": 5126,
      "count": 65532,
      "max": [
        0.9999284148216248,
        0.9999758005142212
      ],
      "min": [
        0.0,
        3.874674439430237e-05
      ],
      "type": "VEC2"
    },
    {
      "bufferView": 0,
      "byteOffset": 6925392,
      "componentType": 5125,
      "count": 314028,
      "type": "SCALAR"
    },
    {
      "bufferView": 2,
      "byteOffset": 9436608,
      "componentType": 5126,
      "count": 65532,
      "max": [
        122.19786834716797,
        5.458433151245117,
        13.36896800994873
      ],
      "min": [
        -39.506553649902344,
        -72.2568588256836,
        -4.07454252243042
      ],
      "type": "VEC3"
    },
    {
      "bufferView": 2,
      "byteOffset": 10222992,
      "componentType": 5126,
      "count": 65532,
      "max": [
        0.9999938607215881,
        0.9999992251396179,
        0.9990538358688354
      ],
      "min": [
        -0.9999179840087891,
        -0.999543309211731,
        -0.9999999403953552
      ],
      "type": "VEC3"
    },
    {
      "bufferView": 1,
      "byteOffset": 3145536,
      "componentType": 5126,
      "count": 65532,
      "max": [
        0.9999752640724182,
        0.9999791979789734
      ],
      "min": [
        0.0011841440573334694,
        0.0038911374285817146
      ],
      "type": "VEC2"
    },
    {
      "bufferView": 0,
      "byteOffset": 8181504,
      "componentType": 5125,
      "count": 337725,
      "type": "SCALAR"
    },
    {
      "bufferView": 2,
      "byteOffset": 11009376,
      "componentType": 5126,
      "count": 65532,
      "max": [
        121.12765502929688,
        40.8684196472168,
        12.039811134338379
      ],
      "min": [
        -40.60405349731445,
        -69.02549743652344,
        -4.032219886779785
      ],
      "type": "VEC3"
    },
    {
      "bufferView": 2,
      "byteOffset": 11795760,
      "componentType": 5126,
      "count": 65532,
      "max": [
        0.9999983906745911,
        0.9999993443489075,
        0.999839723110199
      ],
      "min": [
        -0.9999986290931702,
        -0.999471127986908,
        -0.9999997615814209
      ],
      "type": "VEC3"
    },
    {
      "bufferView": 1,
      "byteOffset": 3669792,
      "componentType": 5126,
      "count": 65532,
      "max": [
        0.9999887943267822,
        0.9979841709136963
      ],
      "min": [
        1.2918695802000002e-06,
        0.00010750582441687584
      ],
      "type": "VEC2"
    },
    {
      "bufferView": 0,
      "byteOffset": 9532404,
      "componentType": 5125,
      "count": 304371,
      "type": "SCALAR"
    },
    {
      "bufferView": 2,
      "byteOffset": 12582144,
      "componentType": 5126,
      "count": 65532,
      "max": [
        3.2501611709594727,
        104.2025146484375,
        10.085508346557617
      ],
      "min": [
        -41.16543960571289,
        16.645761489868164,
        -10.003783226013184
      ],
      "type": "VEC3"
    },
    {
      "bufferView": 2,
      "byteOffset": 13368528,
      "componentType": 5126,
      "count": 65532,
      "max": [
        0.9999985694885254,
        0.9999948740005493,
        0.9999727606773376
      ],
      "min": [
        -0.9999989867210388,
        -0.9999997019767761,
        -0.9999998807907104
      ],
      "type": "VEC3"
    },
    {
      "bufferView": 1,
      "byteOffset": 4194048,
      "componentType": 5126,
      "count": 65532,
      "max": [
        0.9999807476997375,
        0.999999463558197
      ],
      "min": [
        1.0882170499826316e-05,
        0.00015851802891120315
      ],
      "type": "VEC2"
    },
    {
      "bufferView": 0,
      "byteOffset": 10749888,
      "componentType": 5125,
      "count": 335535,
      "type": "SCALAR"
    },
    {
      "bufferView": 2,
      "byteOffset": 14154912,
      "componentType": 5126,
      "count": 65532,
      "max": [
        53.665794372558594,
        102.46505737304688,
        8.595495223999023
      ],
      "min": [
        -37.753700256347656,
        17.21925926208496,
        0.8489912748336792
      ],
      "type": "VEC3"
    },
    {
      "bufferView": 2,
      "byteOffset": 14941296,
      "componentType": 5126,
      "count": 65532,
      "max": [
        0.9999973773956299,
        0.9999967217445374,
        0.9998852610588074
      ],
      "min": [
        -0.9999969005584717,
        -0.9999988079071045,
        -0.9999998807907104
      ],
      "type": "VEC3"
    },
    {
      "bufferView": 1,
      "byteOffset": 4718304,
      "componentType": 5126,
      "count": 65532,
      "max": [
        0.9999695420265198,
        0.9999759197235107
      ],
      "min": [
        8.707926099305041e-06,
        0.0005162949673831463
      ],
      "type": "VEC2"
    },
    {
      "bufferView": 0,
      "byteOffset": 12092028,
      "componentType": 5125,
      "count": 303153,
      "type": "SCALAR"
    },
    {
      "bufferView": 2,
      "byteOffset": 15727680,
      "componentType": 5126,
      "count": 57817,
      "max": [
        103.22332763671875,
        99.19667053222656,
        9.912151336669922
      ],
      "min": [
        -2.092604398727417,
        28.141633987426758,
        -7.14237642288208
      ],
      "type": "VEC3"
    },
    {
      "bufferView": 2,
      "byteOffset": 16421484,
      "componentType": 5126,
      "count": 57817,
      "max": [
        0.9997290968894958,
        0.9999565482139587,
        0.9998841881752014
      ],
      "min": [
        -0.9999741911888123,
        -0.9999699592590332,
        -0.9999988675117493
      ],
      "type": "VEC3"
    },
    {
      "bufferView": 1,
      "byteOffset": 5242560,
      "componentType": 5126,
      "count": 57817,
      "max": [
        0.999978244304657,
        1.0
      ],
      "min": [
        1.581678407092113e-05,
        6.251689046621323e-05
      ],
      "type": "VEC2"
    },
    {
      "bufferView": 0,
      "byteOffset": 13304640,
      "componentType": 5125,
      "count": 273759,
      "type": "SCALAR"
    }
  ],
  "asset": {
    "extras": {
      "author": "johnnokomis (https://sketchfab.com/johnnokomis)",
      "license": "CC-BY-4.0 (http://creativecommons.org/licenses/by/4.0/)",
      "source": "https://sketchfab.com/3d-models/mcdonalds-at-night-5147334c04b24c90b41336d5fdcfaf4a",
      "title": "McDonalds at Night"
    },
    "generator": "Sketchfab-16.0.0",
    "version": "2.0"
  },
  "bufferViews": [
    {
      "buffer": 0,
      "byteLength": 14399676,
      "name": "floatBufferViews",
      "target": 34963
    },
    {
      "buffer": 0,
      "byteLength": 5705096,
      "byteOffset": 14399676,
      "byteStride": 8,
      "name": "floatBufferViews",
      "target": 34962
    },
    {
      "buffer": 0,
      "byteLength": 17115288,
      "byteOffset": 20104772,
      "byteStride": 12,
      "name": "floatBufferViews",
      "target": 34962
    }
  ],
  "buffers": [
    {
      "byteLength": 37220060,
      "uri": "scene.bin"
    }
  ],
  "images": [
    {
      "uri": "textures/material0_baseColor.jpeg"
    }
  ],
  "materials": [
    {
      "doubleSided": true,
      "name": "material0",
      "pbrMetallicRoughness": {
        "baseColorTexture": {
          "index": 0
        },
        "metallicFactor": 0.0,
        "roughnessFactor": 0.9577051494623774
      }
    }
  ],
  "meshes": [
    {
      "name": "Model_material0_0",
      "primitives": [
        {
          "attributes": {
            "NORMAL": 1,
            "POSITION": 0,
            "TEXCOORD_0": 2
          },
          "indices": 3,
          "material": 0,
          "mode": 4
        }
      ]
    },
    {
      "name": "Model_material0_0",
      "primitives": [
        {
          "attributes": {
            "NORMAL": 5,
            "POSITION": 4,
            "TEXCOORD_0": 6
          },
          "indices": 7,
          "material": 0,
          "mode": 4
        }
      ]
    },
    {
      "name": "Model_material0_0",
      "primitives": [
        {
          "attributes": {
            "NORMAL": 9,
            "POSITION": 8,
            "TEXCOORD_0": 10
          },
          "indices": 11,
          "material": 0,
          "mode": 4
        }
      ]
    },
    {
      "name": "Model_material0_0",
      "primitives": [
        {
          "attributes": {
            "NORMAL": 13,
            "POSITION": 12,
            "TEXCOORD_0": 14
          },
          "indices": 15,
          "material": 0,
          "mode": 4
        }
      ]
    },
    {
      "name": "Model_material0_0",
      "primitives": [
        {
          "attributes": {
            "NORMAL": 17,
            "POSITION": 16,
            "TEXCOORD_0": 18
          },
          "indices": 19,
          "material": 0,
          "mode": 4
        }
      ]
    },
    {
      "name": "Model_material0_0",
      "primitives": [
        {
          "attributes": {
            "NORMAL": 21,
            "POSITION": 20,
            "TEXCOORD_0": 22
          },
          "indices": 23,
          "material": 0,
          "mode": 4
        }
      ]
    },
    {
      "name": "Model_material0_0",
      "primitives": [
        {
          "attributes": {
            "NORMAL": 25,
            "POSITION": 24,
            "TEXCOORD_0": 26
          },
          "indices": 27,
          "material": 0,
          "mode": 4
        }
      ]
    },
    {
      "name": "Model_material0_0",
      "primitives": [
        {
          "attributes": {
            "NORMAL": 29,
            "POSITION": 28,
            "TEXCOORD_0": 30
          },
          "indices": 31,
          "material": 0,
          "mode": 4
        }
      ]
    },
    {
      "name": "Model_material0_0",
      "primitives": [
        {
          "attributes": {
            "NORMAL": 33,
            "POSITION": 32,
            "TEXCOORD_0": 34
          },
          "indices": 35,
          "material": 0,
          "mode": 4
        }
      ]
    },
    {
      "name": "Model_material0_0",
      "primitives": [
        {
          "attributes": {
            "NORMAL": 37,
            "POSITION": 36,
            "TEXCOORD_0": 38
          },
          "indices": 39,
          "material": 0,
          "mode": 4
        }
      ]
    },
    {
      "name": "Model_material0_0",
      "primitives": [
        {
          "attributes": {
            "NORMAL": 41,
            "POSITION": 40,
            "TEXCOORD_0": 42
          },
          "indices": 43,
          "material": 0,
          "mode": 4
        }
      ]
    }
  ],
  "nodes": [
    {
      "children": [
        1
      ],
      "matrix": [
        1.0,
        0.0,
        0.0,
        0.0,
        0.0,
        2.220446049250313e-16,
        -1.0,
        0.0,
        0.0,
        1.0,
        2.220446049250313e-16,
        0.0,
        0.0,
        0.0,
        0.0,
        1.0
      ],
      "name": "Sketchfab_model"
    },
    {
      "children": [
        2
      ],
      "matrix": [
        1.0,
        0.0,
        0.0,
        0.0,
        0.0,
        -1.0,
        0.0,
        0.0,
        0.0,
        0.0,
        -1.0,
        0.0,
        0.0,
        0.0,
        0.0,
        1.0
      ],
      "name": "model.fbx"
    },
    {
      "children": [
        3
      ],
      "name": "RootNode"
    },
    {
      "children": [
        4,
        5,
        6,
        7,
        8,
        9,
        10,
        11,
        12,
        13,
        14
      ],
      "name": "Model"
    },
    {
      "mesh": 0,
      "name": "Model_material0_0"
    },
    {
      "mesh": 1,
      "name": "Model_material0_0"
    },
    {
      "mesh": 2,
      "name": "Model_material0_0"
    },
    {
      "mesh": 3,
      "name": "Model_material0_0"
    },
    {
      "mesh": 4,
      "name": "Model_material0_0"
    },
    {
      "mesh": 5,
      "name": "Model_material0_0"
    },
    {
      "mesh": 6,
      "name": "Model_material0_0"
    },
    {
      "mesh": 7,
      "name": "Model_material0_0"
    },
    {
      "mesh": 8,
      "name": "Model_material0_0"
    },
    {
      "mesh": 9,
      "name": "Model_material0_0"
    },
    {
      "mesh": 10,
      "name": "Model_material0_0"
    }
  ],
  "samplers": [
    {
      "magFilter": 9729,
      "minFilter": 9987,
      "wrapS": 10497,
      "wrapT": 10497
    }
  ],
  "scene": 0,
  "scenes": [
    {
      "name": "Sketchfab_Scene",
      "nodes": [
        0
      ]
    }
  ],
  "textures": [
    {
      "sampler": 0,
      "source": 0
    }
  ]
}
