{
	"asset":{
		"generator":"Khronos glTF Blender I/O v4.0.44",
		"version":"2.0"
	},
	"scene":0,
	"scenes":[
		{
			"name":"Scene",
			"nodes":[
				14
			]
		}
	],
	"nodes":[
		{
			"mesh":0,
			"name":"Model_material0_0"
		},
		{
			"mesh":1,
			"name":"Model_material0_0.001"
		},
		{
			"mesh":2,
			"name":"Model_material0_0.002"
		},
		{
			"mesh":3,
			"name":"Model_material0_0.003"
		},
		{
			"mesh":4,
			"name":"Model_material0_0.004"
		},
		{
			"mesh":5,
			"name":"Model_material0_0.005"
		},
		{
			"mesh":6,
			"name":"Model_material0_0.006"
		},
		{
			"mesh":7,
			"name":"Model_material0_0.007"
		},
		{
			"mesh":8,
			"name":"Model_material0_0.008"
		},
		{
			"mesh":9,
			"name":"Model_material0_0.009"
		},
		{
			"mesh":10,
			"name":"Model_material0_0.010"
		},
		{
			"children":[
				0,
				1,
				2,
				3,
				4,
				5,
				6,
				7,
				8,
				9,
				10
			],
			"name":"Model"
		},
		{
			"children":[
				11
			],
			"name":"RootNode"
		},
		{
			"children":[
				12
			],
			"name":"model.fbx",
			"rotation":[
				-1,
				0,
				0,
				7.105428204633949e-15
			]
		},
		{
			"children":[
				13
			],
			"name":"Sketchfab_model",
			"rotation":[
				-0.70710688829422,
				0,
				0,
				0.7071066498756409
			],
			"scale":[
				33.77048873901367,
				33.7704963684082,
				33.7704963684082
			]
		}
	],
	"materials":[
		{
			"doubleSided":true,
			"name":"material0",
			"pbrMetallicRoughness":{
				"baseColorTexture":{
					"index":0
				},
				"metallicFactor":0,
				"roughnessFactor":0.9577051401138306
			}
		}
	],
	"meshes":[
		{
			"name":"Model_material0_0",
			"primitives":[
				{
					"attributes":{
						"POSITION":0,
						"NORMAL":1,
						"TEXCOORD_0":2
					},
					"indices":3,
					"material":0
				}
			]
		},
		{
			"name":"Model_material0_0.001",
			"primitives":[
				{
					"attributes":{
						"POSITION":4,
						"NORMAL":5,
						"TEXCOORD_0":6
					},
					"indices":7,
					"material":0
				}
			]
		},
		{
			"name":"Model_material0_0.002",
			"primitives":[
				{
					"attributes":{
						"POSITION":8,
						"NORMAL":9,
						"TEXCOORD_0":10
					},
					"indices":11,
					"material":0
				}
			]
		},
		{
			"name":"Model_material0_0.003",
			"primitives":[
				{
					"attributes":{
						"POSITION":12,
						"NORMAL":13,
						"TEXCOORD_0":14
					},
					"indices":15,
					"material":0
				}
			]
		},
		{
			"name":"Model_material0_0.004",
			"primitives":[
				{
					"attributes":{
						"POSITION":16,
						"NORMAL":17,
						"TEXCOORD_0":18
					},
					"indices":19,
					"material":0
				}
			]
		},
		{
			"name":"Model_material0_0.005",
			"primitives":[
				{
					"attributes":{
						"POSITION":20,
						"NORMAL":21,
						"TEXCOORD_0":22
					},
					"indices":23,
					"material":0
				}
			]
		},
		{
			"name":"Model_material0_0.006",
			"primitives":[
				{
					"attributes":{
						"POSITION":24,
						"NORMAL":25,
						"TEXCOORD_0":26
					},
					"indices":27,
					"material":0
				}
			]
		},
		{
			"name":"Model_material0_0.007",
			"primitives":[
				{
					"attributes":{
						"POSITION":28,
						"NORMAL":29,
						"TEXCOORD_0":30
					},
					"indices":31,
					"material":0
				}
			]
		},
		{
			"name":"Model_material0_0.008",
			"primitives":[
				{
					"attributes":{
						"POSITION":32,
						"NORMAL":33,
						"TEXCOORD_0":34
					},
					"indices":35,
					"material":0
				}
			]
		},
		{
			"name":"Model_material0_0.009",
			"primitives":[
				{
					"attributes":{
						"POSITION":36,
						"NORMAL":37,
						"TEXCOORD_0":38
					},
					"indices":39,
					"material":0
				}
			]
		},
		{
			"name":"Model_material0_0.010",
			"primitives":[
				{
					"attributes":{
						"POSITION":40,
						"NORMAL":41,
						"TEXCOORD_0":42
					},
					"indices":43,
					"material":0
				}
			]
		}
	],
	"textures":[
		{
			"sampler":0,
			"source":0
		}
	],
	"images":[
		{
			"mimeType":"image/jpeg",
			"name":"material0_baseColor",
			"uri":"material0_baseColor.jpg"
		}
	],
	"accessors":[
		{
			"bufferView":0,
			"componentType":5126,
			"count":65579,
			"max":[
				104.23698425292969,
				102.6031494140625,
				9.886374473571777
			],
			"min":[
				-19.001962661743164,
				12.347330093383789,
				-3.4247207641601562
			],
			"type":"VEC3"
		},
		{
			"bufferView":1,
			"componentType":5126,
			"count":65579,
			"type":"VEC3"
		},
		{
			"bufferView":2,
			"componentType":5126,
			"count":65579,
			"type":"VEC2"
		},
		{
			"bufferView":3,
			"componentType":5125,
			"count":347802,
			"type":"SCALAR"
		},
		{
			"bufferView":4,
			"componentType":5126,
			"count":65574,
			"max":[
				54.40615463256836,
				101.2844467163086,
				9.211902618408203
			],
			"min":[
				-39.46031951904297,
				5.330703258514404,
				2.2225608825683594
			],
			"type":"VEC3"
		},
		{
			"bufferView":5,
			"componentType":5126,
			"count":65574,
			"type":"VEC3"
		},
		{
			"bufferView":6,
			"componentType":5126,
			"count":65574,
			"type":"VEC2"
		},
		{
			"bufferView":7,
			"componentType":5125,
			"count":350388,
			"type":"SCALAR"
		},
		{
			"bufferView":8,
			"componentType":5126,
			"count":65574,
			"max":[
				106.67974853515625,
				96.1562271118164,
				10.852472305297852
			],
			"min":[
				-39.91970443725586,
				-34.95989227294922,
				1.10427987575531
			],
			"type":"VEC3"
		},
		{
			"bufferView":9,
			"componentType":5126,
			"count":65574,
			"type":"VEC3"
		},
		{
			"bufferView":10,
			"componentType":5126,
			"count":65574,
			"type":"VEC2"
		},
		{
			"bufferView":11,
			"componentType":5125,
			"count":350349,
			"type":"SCALAR"
		},
		{
			"bufferView":12,
			"componentType":5126,
			"count":65576,
			"max":[
				100.43248748779297,
				67.61080169677734,
				11.54369068145752
			],
			"min":[
				-29.974964141845703,
				-70.69678497314453,
				0.5787537693977356
			],
			"type":"VEC3"
		},
		{
			"bufferView":13,
			"componentType":5126,
			"count":65576,
			"type":"VEC3"
		},
		{
			"bufferView":14,
			"componentType":5126,
			"count":65576,
			"type":"VEC2"
		},
		{
			"bufferView":15,
			"componentType":5125,
			"count":356448,
			"type":"SCALAR"
		},
		{
			"bufferView":16,
			"componentType":5126,
			"count":65606,
			"max":[
				104.15863037109375,
				72.93634796142578,
				8.322093963623047
			],
			"min":[
				19.320383071899414,
				-7.978416442871094,
				-4.381796360015869
			],
			"type":"VEC3"
		},
		{
			"bufferView":17,
			"componentType":5126,
			"count":65606,
			"type":"VEC3"
		},
		{
			"bufferView":18,
			"componentType":5126,
			"count":65606,
			"type":"VEC2"
		},
		{
			"bufferView":19,
			"componentType":5125,
			"count":326361,
			"type":"SCALAR"
		},
		{
			"bufferView":20,
			"componentType":5126,
			"count":65611,
			"max":[
				106.2320785522461,
				19.334285736083984,
				9.9745454788208
			],
			"min":[
				-39.50727081298828,
				-11.338809967041016,
				-7.779263496398926
			],
			"type":"VEC3"
		},
		{
			"bufferView":21,
			"componentType":5126,
			"count":65611,
			"type":"VEC3"
		},
		{
			"bufferView":22,
			"componentType":5126,
			"count":65611,
			"type":"VEC2"
		},
		{
			"bufferView":23,
			"componentType":5125,
			"count":314028,
			"type":"SCALAR"
		},
		{
			"bufferView":24,
			"componentType":5126,
			"count":65596,
			"max":[
				122.19786834716797,
				5.458433151245117,
				13.36896800994873
			],
			"min":[
				-39.506553649902344,
				-72.2568588256836,
				-4.07454252243042
			],
			"type":"VEC3"
		},
		{
			"bufferView":25,
			"componentType":5126,
			"count":65596,
			"type":"VEC3"
		},
		{
			"bufferView":26,
			"componentType":5126,
			"count":65596,
			"type":"VEC2"
		},
		{
			"bufferView":27,
			"componentType":5125,
			"count":337725,
			"type":"SCALAR"
		},
		{
			"bufferView":28,
			"componentType":5126,
			"count":65649,
			"max":[
				121.12765502929688,
				40.8684196472168,
				12.039811134338379
			],
			"min":[
				-40.60405349731445,
				-69.02549743652344,
				-4.032219886779785
			],
			"type":"VEC3"
		},
		{
			"bufferView":29,
			"componentType":5126,
			"count":65649,
			"type":"VEC3"
		},
		{
			"bufferView":30,
			"componentType":5126,
			"count":65649,
			"type":"VEC2"
		},
		{
			"bufferView":31,
			"componentType":5125,
			"count":304371,
			"type":"SCALAR"
		},
		{
			"bufferView":32,
			"componentType":5126,
			"count":65608,
			"max":[
				3.2501611709594727,
				104.2025146484375,
				10.085508346557617
			],
			"min":[
				-41.16543960571289,
				16.645761489868164,
				-10.003783226013184
			],
			"type":"VEC3"
		},
		{
			"bufferView":33,
			"componentType":5126,
			"count":65608,
			"type":"VEC3"
		},
		{
			"bufferView":34,
			"componentType":5126,
			"count":65608,
			"type":"VEC2"
		},
		{
			"bufferView":35,
			"componentType":5125,
			"count":335535,
			"type":"SCALAR"
		},
		{
			"bufferView":36,
			"componentType":5126,
			"count":65649,
			"max":[
				53.665794372558594,
				102.46505737304688,
				8.595495223999023
			],
			"min":[
				-37.753700256347656,
				17.21925926208496,
				0.8489912748336792
			],
			"type":"VEC3"
		},
		{
			"bufferView":37,
			"componentType":5126,
			"count":65649,
			"type":"VEC3"
		},
		{
			"bufferView":38,
			"componentType":5126,
			"count":65649,
			"type":"VEC2"
		},
		{
			"bufferView":39,
			"componentType":5125,
			"count":303153,
			"type":"SCALAR"
		},
		{
			"bufferView":40,
			"componentType":5126,
			"count":57924,
			"max":[
				103.22332763671875,
				99.19667053222656,
				9.912151336669922
			],
			"min":[
				-2.092604398727417,
				28.141633987426758,
				-7.14237642288208
			],
			"type":"VEC3"
		},
		{
			"bufferView":41,
			"componentType":5126,
			"count":57924,
			"type":"VEC3"
		},
		{
			"bufferView":42,
			"componentType":5126,
			"count":57924,
			"type":"VEC2"
		},
		{
			"bufferView":43,
			"componentType":5123,
			"count":273759,
			"type":"SCALAR"
		}
	],
	"bufferViews":[
		{
			"buffer":0,
			"byteLength":786948,
			"byteOffset":0,
			"target":34962
		},
		{
			"buffer":0,
			"byteLength":786948,
			"byteOffset":786948,
			"target":34962
		},
		{
			"buffer":0,
			"byteLength":524632,
			"byteOffset":1573896,
			"target":34962
		},
		{
			"buffer":0,
			"byteLength":1391208,
			"byteOffset":2098528,
			"target":34963
		},
		{
			"buffer":0,
			"byteLength":786888,
			"byteOffset":3489736,
			"target":34962
		},
		{
			"buffer":0,
			"byteLength":786888,
			"byteOffset":4276624,
			"target":34962
		},
		{
			"buffer":0,
			"byteLength":524592,
			"byteOffset":5063512,
			"target":34962
		},
		{
			"buffer":0,
			"byteLength":1401552,
			"byteOffset":5588104,
			"target":34963
		},
		{
			"buffer":0,
			"byteLength":786888,
			"byteOffset":6989656,
			"target":34962
		},
		{
			"buffer":0,
			"byteLength":786888,
			"byteOffset":7776544,
			"target":34962
		},
		{
			"buffer":0,
			"byteLength":524592,
			"byteOffset":8563432,
			"target":34962
		},
		{
			"buffer":0,
			"byteLength":1401396,
			"byteOffset":9088024,
			"target":34963
		},
		{
			"buffer":0,
			"byteLength":786912,
			"byteOffset":10489420,
			"target":34962
		},
		{
			"buffer":0,
			"byteLength":786912,
			"byteOffset":11276332,
			"target":34962
		},
		{
			"buffer":0,
			"byteLength":524608,
			"byteOffset":12063244,
			"target":34962
		},
		{
			"buffer":0,
			"byteLength":1425792,
			"byteOffset":12587852,
			"target":34963
		},
		{
			"buffer":0,
			"byteLength":787272,
			"byteOffset":14013644,
			"target":34962
		},
		{
			"buffer":0,
			"byteLength":787272,
			"byteOffset":14800916,
			"target":34962
		},
		{
			"buffer":0,
			"byteLength":524848,
			"byteOffset":15588188,
			"target":34962
		},
		{
			"buffer":0,
			"byteLength":1305444,
			"byteOffset":16113036,
			"target":34963
		},
		{
			"buffer":0,
			"byteLength":787332,
			"byteOffset":17418480,
			"target":34962
		},
		{
			"buffer":0,
			"byteLength":787332,
			"byteOffset":18205812,
			"target":34962
		},
		{
			"buffer":0,
			"byteLength":524888,
			"byteOffset":18993144,
			"target":34962
		},
		{
			"buffer":0,
			"byteLength":1256112,
			"byteOffset":19518032,
			"target":34963
		},
		{
			"buffer":0,
			"byteLength":787152,
			"byteOffset":20774144,
			"target":34962
		},
		{
			"buffer":0,
			"byteLength":787152,
			"byteOffset":21561296,
			"target":34962
		},
		{
			"buffer":0,
			"byteLength":524768,
			"byteOffset":22348448,
			"target":34962
		},
		{
			"buffer":0,
			"byteLength":1350900,
			"byteOffset":22873216,
			"target":34963
		},
		{
			"buffer":0,
			"byteLength":787788,
			"byteOffset":24224116,
			"target":34962
		},
		{
			"buffer":0,
			"byteLength":787788,
			"byteOffset":25011904,
			"target":34962
		},
		{
			"buffer":0,
			"byteLength":525192,
			"byteOffset":25799692,
			"target":34962
		},
		{
			"buffer":0,
			"byteLength":1217484,
			"byteOffset":26324884,
			"target":34963
		},
		{
			"buffer":0,
			"byteLength":787296,
			"byteOffset":27542368,
			"target":34962
		},
		{
			"buffer":0,
			"byteLength":787296,
			"byteOffset":28329664,
			"target":34962
		},
		{
			"buffer":0,
			"byteLength":524864,
			"byteOffset":29116960,
			"target":34962
		},
		{
			"buffer":0,
			"byteLength":1342140,
			"byteOffset":29641824,
			"target":34963
		},
		{
			"buffer":0,
			"byteLength":787788,
			"byteOffset":30983964,
			"target":34962
		},
		{
			"buffer":0,
			"byteLength":787788,
			"byteOffset":31771752,
			"target":34962
		},
		{
			"buffer":0,
			"byteLength":525192,
			"byteOffset":32559540,
			"target":34962
		},
		{
			"buffer":0,
			"byteLength":1212612,
			"byteOffset":33084732,
			"target":34963
		},
		{
			"buffer":0,
			"byteLength":695088,
			"byteOffset":34297344,
			"target":34962
		},
		{
			"buffer":0,
			"byteLength":695088,
			"byteOffset":34992432,
			"target":34962
		},
		{
			"buffer":0,
			"byteLength":463392,
			"byteOffset":35687520,
			"target":34962
		},
		{
			"buffer":0,
			"byteLength":547518,
			"byteOffset":36150912,
			"target":34963
		}
	],
	"samplers":[
		{
			"magFilter":9729,
			"minFilter":9987
		}
	],
	"buffers":[
		{
			"byteLength":36698432,
			"uri":"untitled.bin"
		}
	]
}
