{
	"asset":{
		"generator":"Khronos glTF Blender I/O v4.0.44",
		"version":"2.0"
	},
	"extensionsUsed":[
		"KHR_materials_unlit"
	],
	"scene":0,
	"scenes":[
		{
			"name":"Scene",
			"nodes":[
				21
			]
		}
	],
	"nodes":[
		{
			"mesh":0,
			"name":"Model_material0_0",
			"translation":[
				0,
				3.5503696835803567e-06,
				0
			]
		},
		{
			"mesh":1,
			"name":"Model_material0_0.001",
			"translation":[
				0,
				3.5503696835803567e-06,
				0
			]
		},
		{
			"mesh":2,
			"name":"Model_material0_0.002",
			"translation":[
				0,
				3.5503696835803567e-06,
				0
			]
		},
		{
			"mesh":3,
			"name":"Model_material0_0.003",
			"translation":[
				0,
				3.5503696835803567e-06,
				0
			]
		},
		{
			"mesh":4,
			"name":"Model_material0_0.004",
			"translation":[
				0,
				3.5503696835803567e-06,
				0
			]
		},
		{
			"mesh":5,
			"name":"Model_material0_0.005",
			"translation":[
				0,
				3.5503696835803567e-06,
				0
			]
		},
		{
			"mesh":6,
			"name":"Model_material0_0.006",
			"translation":[
				0,
				3.5503696835803567e-06,
				0
			]
		},
		{
			"mesh":7,
			"name":"Model_material0_0.007",
			"translation":[
				0,
				3.5503696835803567e-06,
				0
			]
		},
		{
			"mesh":8,
			"name":"Model_material0_0.008",
			"translation":[
				0,
				3.5503696835803567e-06,
				0
			]
		},
		{
			"mesh":9,
			"name":"Model_material0_0.009",
			"translation":[
				0,
				3.5503696835803567e-06,
				0
			]
		},
		{
			"mesh":10,
			"name":"Model_material0_0.010",
			"translation":[
				0,
				3.5503696835803567e-06,
				0
			]
		},
		{
			"mesh":11,
			"name":"Model_material0_0.011",
			"translation":[
				0,
				3.5503696835803567e-06,
				0
			]
		},
		{
			"mesh":12,
			"name":"Model_material0_0.012",
			"translation":[
				0,
				3.5503696835803567e-06,
				0
			]
		},
		{
			"mesh":13,
			"name":"Model_material0_0.013",
			"translation":[
				0,
				3.5503696835803567e-06,
				0
			]
		},
		{
			"mesh":14,
			"name":"Model_material0_0.014",
			"translation":[
				0,
				3.5503696835803567e-06,
				0
			]
		},
		{
			"mesh":15,
			"name":"Model_material0_0.015",
			"translation":[
				0,
				3.5503696835803567e-06,
				0
			]
		},
		{
			"mesh":16,
			"name":"Model_material0_0.016",
			"translation":[
				0,
				3.5503696835803567e-06,
				0
			]
		},
		{
			"mesh":17,
			"name":"Model_material0_0.017",
			"translation":[
				0,
				3.5503696835803567e-06,
				0
			]
		},
		{
			"children":[
				0,
				1,
				2,
				3,
				4,
				5,
				6,
				7,
				8,
				9,
				10,
				11,
				12,
				13,
				14,
				15,
				16,
				17
			],
			"name":"Model",
			"translation":[
				0,
				3.5503696835803567e-06,
				0
			]
		},
		{
			"children":[
				18
			],
			"name":"RootNode",
			"translation":[
				0,
				3.5503696835803567e-06,
				0
			]
		},
		{
			"children":[
				19
			],
			"name":"model.fbx",
			"rotation":[
				1,
				0,
				0,
				2.4424902306588708e-15
			],
			"translation":[
				0,
				-3.5503696835803567e-06,
				0
			]
		},
		{
			"children":[
				20
			],
			"name":"Sketchfab_model",
			"rotation":[
				-0.12017449736595154,
				0.6968199610710144,
				0.6968200206756592,
				0.12017450481653214
			],
			"scale":[
				2.952739953994751,
				2.95274019241333,
				2.95274019241333
			],
			"translation":[
				23.68936538696289,
				54.01896667480469,
				-130.56903076171875
			]
		}
	],
	"materials":[
		{
			"doubleSided":true,
			"extensions":{
				"KHR_materials_unlit":{}
			},
			"name":"material0",
			"pbrMetallicRoughness":{
				"baseColorTexture":{
					"index":0
				},
				"metallicFactor":0,
				"roughnessFactor":0.9
			}
		}
	],
	"meshes":[
		{
			"name":"Model_material0_0",
			"primitives":[
				{
					"attributes":{
						"POSITION":0,
						"NORMAL":1,
						"TEXCOORD_0":2
					},
					"indices":3,
					"material":0
				}
			]
		},
		{
			"name":"Model_material0_0.001",
			"primitives":[
				{
					"attributes":{
						"POSITION":4,
						"NORMAL":5,
						"TEXCOORD_0":6
					},
					"indices":7,
					"material":0
				}
			]
		},
		{
			"name":"Model_material0_0.002",
			"primitives":[
				{
					"attributes":{
						"POSITION":8,
						"NORMAL":9,
						"TEXCOORD_0":10
					},
					"indices":11,
					"material":0
				}
			]
		},
		{
			"name":"Model_material0_0.003",
			"primitives":[
				{
					"attributes":{
						"POSITION":12,
						"NORMAL":13,
						"TEXCOORD_0":14
					},
					"indices":15,
					"material":0
				}
			]
		},
		{
			"name":"Model_material0_0.004",
			"primitives":[
				{
					"attributes":{
						"POSITION":16,
						"NORMAL":17,
						"TEXCOORD_0":18
					},
					"indices":19,
					"material":0
				}
			]
		},
		{
			"name":"Model_material0_0.005",
			"primitives":[
				{
					"attributes":{
						"POSITION":20,
						"NORMAL":21,
						"TEXCOORD_0":22
					},
					"indices":23,
					"material":0
				}
			]
		},
		{
			"name":"Model_material0_0.006",
			"primitives":[
				{
					"attributes":{
						"POSITION":24,
						"NORMAL":25,
						"TEXCOORD_0":26
					},
					"indices":27,
					"material":0
				}
			]
		},
		{
			"name":"Model_material0_0.007",
			"primitives":[
				{
					"attributes":{
						"POSITION":28,
						"NORMAL":29,
						"TEXCOORD_0":30
					},
					"indices":31,
					"material":0
				}
			]
		},
		{
			"name":"Model_material0_0.008",
			"primitives":[
				{
					"attributes":{
						"POSITION":32,
						"NORMAL":33,
						"TEXCOORD_0":34
					},
					"indices":35,
					"material":0
				}
			]
		},
		{
			"name":"Model_material0_0.009",
			"primitives":[
				{
					"attributes":{
						"POSITION":36,
						"NORMAL":37,
						"TEXCOORD_0":38
					},
					"indices":39,
					"material":0
				}
			]
		},
		{
			"name":"Model_material0_0.010",
			"primitives":[
				{
					"attributes":{
						"POSITION":40,
						"NORMAL":41,
						"TEXCOORD_0":42
					},
					"indices":43,
					"material":0
				}
			]
		},
		{
			"name":"Model_material0_0.011",
			"primitives":[
				{
					"attributes":{
						"POSITION":44,
						"NORMAL":45,
						"TEXCOORD_0":46
					},
					"indices":47,
					"material":0
				}
			]
		},
		{
			"name":"Model_material0_0.012",
			"primitives":[
				{
					"attributes":{
						"POSITION":48,
						"NORMAL":49,
						"TEXCOORD_0":50
					},
					"indices":51,
					"material":0
				}
			]
		},
		{
			"name":"Model_material0_0.013",
			"primitives":[
				{
					"attributes":{
						"POSITION":52,
						"NORMAL":53,
						"TEXCOORD_0":54
					},
					"indices":55,
					"material":0
				}
			]
		},
		{
			"name":"Model_material0_0.014",
			"primitives":[
				{
					"attributes":{
						"POSITION":56,
						"NORMAL":57,
						"TEXCOORD_0":58
					},
					"indices":59,
					"material":0
				}
			]
		},
		{
			"name":"Model_material0_0.015",
			"primitives":[
				{
					"attributes":{
						"POSITION":60,
						"NORMAL":61,
						"TEXCOORD_0":62
					},
					"indices":63,
					"material":0
				}
			]
		},
		{
			"name":"Model_material0_0.016",
			"primitives":[
				{
					"attributes":{
						"POSITION":64,
						"NORMAL":65,
						"TEXCOORD_0":66
					},
					"indices":67,
					"material":0
				}
			]
		},
		{
			"name":"Model_material0_0.017",
			"primitives":[
				{
					"attributes":{
						"POSITION":68,
						"NORMAL":69,
						"TEXCOORD_0":70
					},
					"indices":71,
					"material":0
				}
			]
		}
	],
	"textures":[
		{
			"sampler":0,
			"source":0
		}
	],
	"images":[
		{
			"mimeType":"image/jpeg",
			"name":"material0_baseColor",
			"uri":"material0_baseColor.jpg"
		}
	],
	"accessors":[
		{
			"bufferView":0,
			"componentType":5126,
			"count":65622,
			"max":[
				-53.15778732299805,
				63.50972366333008,
				31.493087768554688
			],
			"min":[
				-284.92926025390625,
				-100.70590209960938,
				7.317002773284912
			],
			"type":"VEC3"
		},
		{
			"bufferView":1,
			"componentType":5126,
			"count":65622,
			"type":"VEC3"
		},
		{
			"bufferView":2,
			"componentType":5126,
			"count":65622,
			"type":"VEC2"
		},
		{
			"bufferView":3,
			"componentType":5125,
			"count":318312,
			"type":"SCALAR"
		},
		{
			"bufferView":4,
			"componentType":5126,
			"count":65609,
			"max":[
				9.78100299835205,
				153.18751525878906,
				30.030357360839844
			],
			"min":[
				-271.2950134277344,
				-132.42938232421875,
				5.1166558265686035
			],
			"type":"VEC3"
		},
		{
			"bufferView":5,
			"componentType":5126,
			"count":65609,
			"type":"VEC3"
		},
		{
			"bufferView":6,
			"componentType":5126,
			"count":65609,
			"type":"VEC2"
		},
		{
			"bufferView":7,
			"componentType":5125,
			"count":295674,
			"type":"SCALAR"
		},
		{
			"bufferView":8,
			"componentType":5126,
			"count":65626,
			"max":[
				28.561241149902344,
				182.2886199951172,
				29.281211853027344
			],
			"min":[
				-198.5409698486328,
				28.811840057373047,
				6.175949573516846
			],
			"type":"VEC3"
		},
		{
			"bufferView":9,
			"componentType":5126,
			"count":65626,
			"type":"VEC3"
		},
		{
			"bufferView":10,
			"componentType":5126,
			"count":65626,
			"type":"VEC2"
		},
		{
			"bufferView":11,
			"componentType":5125,
			"count":298203,
			"type":"SCALAR"
		},
		{
			"bufferView":12,
			"componentType":5126,
			"count":65638,
			"max":[
				187.6717987060547,
				253.89776611328125,
				32.46034622192383
			],
			"min":[
				-109.73434448242188,
				-150.8780975341797,
				5.993645668029785
			],
			"type":"VEC3"
		},
		{
			"bufferView":13,
			"componentType":5126,
			"count":65638,
			"type":"VEC3"
		},
		{
			"bufferView":14,
			"componentType":5126,
			"count":65638,
			"type":"VEC2"
		},
		{
			"bufferView":15,
			"componentType":5125,
			"count":280779,
			"type":"SCALAR"
		},
		{
			"bufferView":16,
			"componentType":5126,
			"count":65620,
			"max":[
				240.48843383789062,
				102.05802154541016,
				32.72440719604492
			],
			"min":[
				80.18843841552734,
				-186.45147705078125,
				10.730717658996582
			],
			"type":"VEC3"
		},
		{
			"bufferView":17,
			"componentType":5126,
			"count":65620,
			"type":"VEC3"
		},
		{
			"bufferView":18,
			"componentType":5126,
			"count":65620,
			"type":"VEC2"
		},
		{
			"bufferView":19,
			"componentType":5125,
			"count":305001,
			"type":"SCALAR"
		},
		{
			"bufferView":20,
			"componentType":5126,
			"count":65600,
			"max":[
				237.06930541992188,
				184.24913024902344,
				33.37579345703125
			],
			"min":[
				2.5518994331359863,
				-29.807937622070312,
				11.125814437866211
			],
			"type":"VEC3"
		},
		{
			"bufferView":21,
			"componentType":5126,
			"count":65600,
			"type":"VEC3"
		},
		{
			"bufferView":22,
			"componentType":5126,
			"count":65600,
			"type":"VEC2"
		},
		{
			"bufferView":23,
			"componentType":5125,
			"count":289986,
			"type":"SCALAR"
		},
		{
			"bufferView":24,
			"componentType":5126,
			"count":65722,
			"max":[
				113.94505310058594,
				155.94139099121094,
				30.131837844848633
			],
			"min":[
				-284.6374816894531,
				-89.0615463256836,
				9.020112991333008
			],
			"type":"VEC3"
		},
		{
			"bufferView":25,
			"componentType":5126,
			"count":65722,
			"type":"VEC3"
		},
		{
			"bufferView":26,
			"componentType":5126,
			"count":65722,
			"type":"VEC2"
		},
		{
			"bufferView":27,
			"componentType":5125,
			"count":220599,
			"type":"SCALAR"
		},
		{
			"bufferView":28,
			"componentType":5126,
			"count":65833,
			"max":[
				-8.150812149047852,
				36.86088562011719,
				32.78678894042969
			],
			"min":[
				-167.7335968017578,
				-129.79017639160156,
				5.23575496673584
			],
			"type":"VEC3"
		},
		{
			"bufferView":29,
			"componentType":5126,
			"count":65833,
			"type":"VEC3"
		},
		{
			"bufferView":30,
			"componentType":5126,
			"count":65833,
			"type":"VEC2"
		},
		{
			"bufferView":31,
			"componentType":5125,
			"count":180339,
			"type":"SCALAR"
		},
		{
			"bufferView":32,
			"componentType":5126,
			"count":65793,
			"max":[
				87.02687072753906,
				-12.897369384765625,
				30.270835876464844
			],
			"min":[
				-88.2795181274414,
				-130.91806030273438,
				5.98909854888916
			],
			"type":"VEC3"
		},
		{
			"bufferView":33,
			"componentType":5126,
			"count":65793,
			"type":"VEC3"
		},
		{
			"bufferView":34,
			"componentType":5126,
			"count":65793,
			"type":"VEC2"
		},
		{
			"bufferView":35,
			"componentType":5125,
			"count":184785,
			"type":"SCALAR"
		},
		{
			"bufferView":36,
			"componentType":5126,
			"count":65750,
			"max":[
				211.99105834960938,
				-21.335451126098633,
				31.578372955322266
			],
			"min":[
				60.93809127807617,
				-186.90890502929688,
				9.251607894897461
			],
			"type":"VEC3"
		},
		{
			"bufferView":37,
			"componentType":5126,
			"count":65750,
			"type":"VEC3"
		},
		{
			"bufferView":38,
			"componentType":5126,
			"count":65750,
			"type":"VEC2"
		},
		{
			"bufferView":39,
			"componentType":5125,
			"count":195447,
			"type":"SCALAR"
		},
		{
			"bufferView":40,
			"componentType":5126,
			"count":65829,
			"max":[
				234.55352783203125,
				107.43740844726562,
				32.65271759033203
			],
			"min":[
				20.947046279907227,
				-132.23023986816406,
				8.699752807617188
			],
			"type":"VEC3"
		},
		{
			"bufferView":41,
			"componentType":5126,
			"count":65829,
			"type":"VEC3"
		},
		{
			"bufferView":42,
			"componentType":5126,
			"count":65829,
			"type":"VEC2"
		},
		{
			"bufferView":43,
			"componentType":5125,
			"count":194151,
			"type":"SCALAR"
		},
		{
			"bufferView":44,
			"componentType":5126,
			"count":65730,
			"max":[
				97.36717987060547,
				185.5683135986328,
				31.171436309814453
			],
			"min":[
				10.234563827514648,
				13.871262550354004,
				10.180649757385254
			],
			"type":"VEC3"
		},
		{
			"bufferView":45,
			"componentType":5126,
			"count":65730,
			"type":"VEC3"
		},
		{
			"bufferView":46,
			"componentType":5126,
			"count":65730,
			"type":"VEC2"
		},
		{
			"bufferView":47,
			"componentType":5125,
			"count":188853,
			"type":"SCALAR"
		},
		{
			"bufferView":48,
			"componentType":5126,
			"count":65782,
			"max":[
				252.4171905517578,
				239.49261474609375,
				33.784210205078125
			],
			"min":[
				3.6543595790863037,
				-28.38347816467285,
				10.198467254638672
			],
			"type":"VEC3"
		},
		{
			"bufferView":49,
			"componentType":5126,
			"count":65782,
			"type":"VEC3"
		},
		{
			"bufferView":50,
			"componentType":5126,
			"count":65782,
			"type":"VEC2"
		},
		{
			"bufferView":51,
			"componentType":5125,
			"count":235929,
			"type":"SCALAR"
		},
		{
			"bufferView":52,
			"componentType":5126,
			"count":65831,
			"max":[
				190.2766571044922,
				78.89645385742188,
				33.25761795043945
			],
			"min":[
				2.333949089050293,
				-156.19061279296875,
				9.752805709838867
			],
			"type":"VEC3"
		},
		{
			"bufferView":53,
			"componentType":5126,
			"count":65831,
			"type":"VEC3"
		},
		{
			"bufferView":54,
			"componentType":5126,
			"count":65831,
			"type":"VEC2"
		},
		{
			"bufferView":55,
			"componentType":5125,
			"count":187836,
			"type":"SCALAR"
		},
		{
			"bufferView":56,
			"componentType":5126,
			"count":65780,
			"max":[
				68.94361877441406,
				258.2432556152344,
				32.46034622192383
			],
			"min":[
				-109.0141830444336,
				-152.9081573486328,
				-30.5103759765625
			],
			"type":"VEC3"
		},
		{
			"bufferView":57,
			"componentType":5126,
			"count":65780,
			"type":"VEC3"
		},
		{
			"bufferView":58,
			"componentType":5126,
			"count":65780,
			"type":"VEC2"
		},
		{
			"bufferView":59,
			"componentType":5125,
			"count":225624,
			"type":"SCALAR"
		},
		{
			"bufferView":60,
			"componentType":5126,
			"count":65786,
			"max":[
				8.524285316467285,
				155.629638671875,
				29.31147575378418
			],
			"min":[
				-179.680419921875,
				31.142969131469727,
				-14.570211410522461
			],
			"type":"VEC3"
		},
		{
			"bufferView":61,
			"componentType":5126,
			"count":65786,
			"type":"VEC3"
		},
		{
			"bufferView":62,
			"componentType":5126,
			"count":65786,
			"type":"VEC2"
		},
		{
			"bufferView":63,
			"componentType":5125,
			"count":186240,
			"type":"SCALAR"
		},
		{
			"bufferView":64,
			"componentType":5126,
			"count":65791,
			"max":[
				-108.75444030761719,
				176.2764892578125,
				31.493087768554688
			],
			"min":[
				-271.6211242675781,
				37.474090576171875,
				4.748631000518799
			],
			"type":"VEC3"
		},
		{
			"bufferView":65,
			"componentType":5126,
			"count":65791,
			"type":"VEC3"
		},
		{
			"bufferView":66,
			"componentType":5126,
			"count":65791,
			"type":"VEC2"
		},
		{
			"bufferView":67,
			"componentType":5125,
			"count":223866,
			"type":"SCALAR"
		},
		{
			"bufferView":68,
			"componentType":5126,
			"count":60307,
			"max":[
				2.542729139328003,
				156.22763061523438,
				33.101539611816406
			],
			"min":[
				-279.4881591796875,
				-45.11800003051758,
				4.950356960296631
			],
			"type":"VEC3"
		},
		{
			"bufferView":69,
			"componentType":5126,
			"count":60307,
			"type":"VEC3"
		},
		{
			"bufferView":70,
			"componentType":5126,
			"count":60307,
			"type":"VEC2"
		},
		{
			"bufferView":71,
			"componentType":5123,
			"count":219033,
			"type":"SCALAR"
		}
	],
	"bufferViews":[
		{
			"buffer":0,
			"byteLength":787464,
			"byteOffset":0,
			"target":34962
		},
		{
			"buffer":0,
			"byteLength":787464,
			"byteOffset":787464,
			"target":34962
		},
		{
			"buffer":0,
			"byteLength":524976,
			"byteOffset":1574928,
			"target":34962
		},
		{
			"buffer":0,
			"byteLength":1273248,
			"byteOffset":2099904,
			"target":34963
		},
		{
			"buffer":0,
			"byteLength":787308,
			"byteOffset":3373152,
			"target":34962
		},
		{
			"buffer":0,
			"byteLength":787308,
			"byteOffset":4160460,
			"target":34962
		},
		{
			"buffer":0,
			"byteLength":524872,
			"byteOffset":4947768,
			"target":34962
		},
		{
			"buffer":0,
			"byteLength":1182696,
			"byteOffset":5472640,
			"target":34963
		},
		{
			"buffer":0,
			"byteLength":787512,
			"byteOffset":6655336,
			"target":34962
		},
		{
			"buffer":0,
			"byteLength":787512,
			"byteOffset":7442848,
			"target":34962
		},
		{
			"buffer":0,
			"byteLength":525008,
			"byteOffset":8230360,
			"target":34962
		},
		{
			"buffer":0,
			"byteLength":1192812,
			"byteOffset":8755368,
			"target":34963
		},
		{
			"buffer":0,
			"byteLength":787656,
			"byteOffset":9948180,
			"target":34962
		},
		{
			"buffer":0,
			"byteLength":787656,
			"byteOffset":10735836,
			"target":34962
		},
		{
			"buffer":0,
			"byteLength":525104,
			"byteOffset":11523492,
			"target":34962
		},
		{
			"buffer":0,
			"byteLength":1123116,
			"byteOffset":12048596,
			"target":34963
		},
		{
			"buffer":0,
			"byteLength":787440,
			"byteOffset":13171712,
			"target":34962
		},
		{
			"buffer":0,
			"byteLength":787440,
			"byteOffset":13959152,
			"target":34962
		},
		{
			"buffer":0,
			"byteLength":524960,
			"byteOffset":14746592,
			"target":34962
		},
		{
			"buffer":0,
			"byteLength":1220004,
			"byteOffset":15271552,
			"target":34963
		},
		{
			"buffer":0,
			"byteLength":787200,
			"byteOffset":16491556,
			"target":34962
		},
		{
			"buffer":0,
			"byteLength":787200,
			"byteOffset":17278756,
			"target":34962
		},
		{
			"buffer":0,
			"byteLength":524800,
			"byteOffset":18065956,
			"target":34962
		},
		{
			"buffer":0,
			"byteLength":1159944,
			"byteOffset":18590756,
			"target":34963
		},
		{
			"buffer":0,
			"byteLength":788664,
			"byteOffset":19750700,
			"target":34962
		},
		{
			"buffer":0,
			"byteLength":788664,
			"byteOffset":20539364,
			"target":34962
		},
		{
			"buffer":0,
			"byteLength":525776,
			"byteOffset":21328028,
			"target":34962
		},
		{
			"buffer":0,
			"byteLength":882396,
			"byteOffset":21853804,
			"target":34963
		},
		{
			"buffer":0,
			"byteLength":789996,
			"byteOffset":22736200,
			"target":34962
		},
		{
			"buffer":0,
			"byteLength":789996,
			"byteOffset":23526196,
			"target":34962
		},
		{
			"buffer":0,
			"byteLength":526664,
			"byteOffset":24316192,
			"target":34962
		},
		{
			"buffer":0,
			"byteLength":721356,
			"byteOffset":24842856,
			"target":34963
		},
		{
			"buffer":0,
			"byteLength":789516,
			"byteOffset":25564212,
			"target":34962
		},
		{
			"buffer":0,
			"byteLength":789516,
			"byteOffset":26353728,
			"target":34962
		},
		{
			"buffer":0,
			"byteLength":526344,
			"byteOffset":27143244,
			"target":34962
		},
		{
			"buffer":0,
			"byteLength":739140,
			"byteOffset":27669588,
			"target":34963
		},
		{
			"buffer":0,
			"byteLength":789000,
			"byteOffset":28408728,
			"target":34962
		},
		{
			"buffer":0,
			"byteLength":789000,
			"byteOffset":29197728,
			"target":34962
		},
		{
			"buffer":0,
			"byteLength":526000,
			"byteOffset":29986728,
			"target":34962
		},
		{
			"buffer":0,
			"byteLength":781788,
			"byteOffset":30512728,
			"target":34963
		},
		{
			"buffer":0,
			"byteLength":789948,
			"byteOffset":31294516,
			"target":34962
		},
		{
			"buffer":0,
			"byteLength":789948,
			"byteOffset":32084464,
			"target":34962
		},
		{
			"buffer":0,
			"byteLength":526632,
			"byteOffset":32874412,
			"target":34962
		},
		{
			"buffer":0,
			"byteLength":776604,
			"byteOffset":33401044,
			"target":34963
		},
		{
			"buffer":0,
			"byteLength":788760,
			"byteOffset":34177648,
			"target":34962
		},
		{
			"buffer":0,
			"byteLength":788760,
			"byteOffset":34966408,
			"target":34962
		},
		{
			"buffer":0,
			"byteLength":525840,
			"byteOffset":35755168,
			"target":34962
		},
		{
			"buffer":0,
			"byteLength":755412,
			"byteOffset":36281008,
			"target":34963
		},
		{
			"buffer":0,
			"byteLength":789384,
			"byteOffset":37036420,
			"target":34962
		},
		{
			"buffer":0,
			"byteLength":789384,
			"byteOffset":37825804,
			"target":34962
		},
		{
			"buffer":0,
			"byteLength":526256,
			"byteOffset":38615188,
			"target":34962
		},
		{
			"buffer":0,
			"byteLength":943716,
			"byteOffset":39141444,
			"target":34963
		},
		{
			"buffer":0,
			"byteLength":789972,
			"byteOffset":40085160,
			"target":34962
		},
		{
			"buffer":0,
			"byteLength":789972,
			"byteOffset":40875132,
			"target":34962
		},
		{
			"buffer":0,
			"byteLength":526648,
			"byteOffset":41665104,
			"target":34962
		},
		{
			"buffer":0,
			"byteLength":751344,
			"byteOffset":42191752,
			"target":34963
		},
		{
			"buffer":0,
			"byteLength":789360,
			"byteOffset":42943096,
			"target":34962
		},
		{
			"buffer":0,
			"byteLength":789360,
			"byteOffset":43732456,
			"target":34962
		},
		{
			"buffer":0,
			"byteLength":526240,
			"byteOffset":44521816,
			"target":34962
		},
		{
			"buffer":0,
			"byteLength":902496,
			"byteOffset":45048056,
			"target":34963
		},
		{
			"buffer":0,
			"byteLength":789432,
			"byteOffset":45950552,
			"target":34962
		},
		{
			"buffer":0,
			"byteLength":789432,
			"byteOffset":46739984,
			"target":34962
		},
		{
			"buffer":0,
			"byteLength":526288,
			"byteOffset":47529416,
			"target":34962
		},
		{
			"buffer":0,
			"byteLength":744960,
			"byteOffset":48055704,
			"target":34963
		},
		{
			"buffer":0,
			"byteLength":789492,
			"byteOffset":48800664,
			"target":34962
		},
		{
			"buffer":0,
			"byteLength":789492,
			"byteOffset":49590156,
			"target":34962
		},
		{
			"buffer":0,
			"byteLength":526328,
			"byteOffset":50379648,
			"target":34962
		},
		{
			"buffer":0,
			"byteLength":895464,
			"byteOffset":50905976,
			"target":34963
		},
		{
			"buffer":0,
			"byteLength":723684,
			"byteOffset":51801440,
			"target":34962
		},
		{
			"buffer":0,
			"byteLength":723684,
			"byteOffset":52525124,
			"target":34962
		},
		{
			"buffer":0,
			"byteLength":482456,
			"byteOffset":53248808,
			"target":34962
		},
		{
			"buffer":0,
			"byteLength":438066,
			"byteOffset":53731264,
			"target":34963
		}
	],
	"samplers":[
		{
			"magFilter":9729,
			"minFilter":9987
		}
	],
	"buffers":[
		{
			"byteLength":54169332,
			"uri":"scene.bin"
		}
	]
}
