{
	"asset":{
		"generator":"Khronos glTF Blender I/O v4.0.44",
		"version":"2.0"
	},
	"scene":0,
	"scenes":[
		{
			"name":"Scene",
			"nodes":[
				3,
				8,
				9
			]
		}
	],
	"nodes":[
		{
			"name":"EstacaoTotal_Tripe_Perna2",
			"rotation":[
				-0.70710688829422,
				0,
				0,
				0.7071066498756409
			],
			"scale":[
				99.99999237060547,
				99.99999237060547,
				99.99999237060547
			]
		},
		{
			"children":[
				0
			],
			"name":"RootNode"
		},
		{
			"children":[
				1
			],
			"name":"7cdf199cd2fa41978917bc877d679b45.fbx",
			"rotation":[
				0.70710688829422,
				0,
				0,
				0.7071066498756409
			]
		},
		{
			"children":[
				2
			],
			"name":"Sketchfab_model",
			"rotation":[
				-0.70710688829422,
				0,
				0,
				0.7071066498756409
			],
			"scale":[
				0.6144814491271973,
				0.614481508731842,
				0.614481508731842
			],
			"translation":[
				0.2895670533180237,
				0.7552292346954346,
				-0.06723818182945251
			]
		},
		{
			"mesh":0,
			"name":"EstacaoTotal_Tripe_Perna2_Cores_0.002",
			"scale":[
				0.12935759127140045,
				0.12935757637023926,
				0.12935757637023926
			]
		},
		{
			"children":[
				4
			],
			"name":"EstacaoTotal_Tripe_Perna2.001",
			"rotation":[
				-0.70710688829422,
				0,
				0,
				0.7071066498756409
			],
			"scale":[
				99.99999237060547,
				99.99999237060547,
				99.99999237060547
			]
		},
		{
			"children":[
				5
			],
			"name":"RootNode.001"
		},
		{
			"children":[
				6
			],
			"name":"7cdf199cd2fa41978917bc877d679b45.fbx.001",
			"rotation":[
				0.70710688829422,
				0,
				0,
				0.7071066498756409
			]
		},
		{
			"children":[
				7
			],
			"name":"Sketchfab_model.001",
			"rotation":[
				-0.70710688829422,
				0,
				0,
				0.7071066498756409
			],
			"scale":[
				0.6144814491271973,
				0.614481508731842,
				0.614481508731842
			],
			"translation":[
				0.2895670533180237,
				0.7552292346954346,
				-0.06723818182945251
			]
		},
		{
			"mesh":1,
			"name":"Cylinder",
			"rotation":[
				0,
				0,
				-0.7071068286895752,
				0.7071068286895752
			],
			"scale":[
				0.11245008558034897,
				0.11245008558034897,
				0.11245008558034897
			],
			"translation":[
				-0.36903607845306396,
				1.942481517791748,
				0.12190848588943481
			]
		}
	],
	"materials":[
		{
			"doubleSided":true,
			"name":"Cores.001",
			"pbrMetallicRoughness":{
				"baseColorTexture":{
					"index":0
				},
				"metallicFactor":0.4455626904964447,
				"roughnessFactor":0.8211145401000977
			}
		}
	],
	"meshes":[
		{
			"name":"EstacaoTotal_Tripe_Perna2_Cores_0.002",
			"primitives":[
				{
					"attributes":{
						"POSITION":0,
						"NORMAL":1,
						"TEXCOORD_0":2
					},
					"indices":3,
					"material":0
				}
			]
		},
		{
			"name":"Cylinder",
			"primitives":[
				{
					"attributes":{
						"POSITION":4,
						"NORMAL":5,
						"TEXCOORD_0":6
					},
					"indices":7
				}
			]
		}
	],
	"textures":[
		{
			"sampler":0,
			"source":0
		}
	],
	"images":[
		{
			"mimeType":"image/jpeg",
			"name":"Cores_baseColor",
			"uri":"Cores_baseColor.jpg"
		}
	],
	"accessors":[
		{
			"bufferView":0,
			"componentType":5126,
			"count":1354,
			"max":[
				0.16152195632457733,
				0.07238900661468506,
				0.3085094690322876
			],
			"min":[
				-0.16503922641277313,
				-0.09310188889503479,
				-0.05090939998626709
			],
			"type":"VEC3"
		},
		{
			"bufferView":1,
			"componentType":5126,
			"count":1354,
			"type":"VEC3"
		},
		{
			"bufferView":2,
			"componentType":5126,
			"count":1354,
			"type":"VEC2"
		},
		{
			"bufferView":3,
			"componentType":5123,
			"count":1827,
			"type":"SCALAR"
		},
		{
			"bufferView":4,
			"componentType":5126,
			"count":256,
			"max":[
				1.000000238418579,
				10.395069122314453,
				1
			],
			"min":[
				-1,
				-1,
				-1
			],
			"type":"VEC3"
		},
		{
			"bufferView":5,
			"componentType":5126,
			"count":256,
			"type":"VEC3"
		},
		{
			"bufferView":6,
			"componentType":5126,
			"count":256,
			"type":"VEC2"
		},
		{
			"bufferView":7,
			"componentType":5123,
			"count":564,
			"type":"SCALAR"
		}
	],
	"bufferViews":[
		{
			"buffer":0,
			"byteLength":16248,
			"byteOffset":0,
			"target":34962
		},
		{
			"buffer":0,
			"byteLength":16248,
			"byteOffset":16248,
			"target":34962
		},
		{
			"buffer":0,
			"byteLength":10832,
			"byteOffset":32496,
			"target":34962
		},
		{
			"buffer":0,
			"byteLength":3654,
			"byteOffset":43328,
			"target":34963
		},
		{
			"buffer":0,
			"byteLength":3072,
			"byteOffset":46984,
			"target":34962
		},
		{
			"buffer":0,
			"byteLength":3072,
			"byteOffset":50056,
			"target":34962
		},
		{
			"buffer":0,
			"byteLength":2048,
			"byteOffset":53128,
			"target":34962
		},
		{
			"buffer":0,
			"byteLength":1128,
			"byteOffset":55176,
			"target":34963
		}
	],
	"samplers":[
		{
			"magFilter":9729,
			"minFilter":9987
		}
	],
	"buffers":[
		{
			"byteLength":56304,
			"uri":"2.bin"
		}
	]
}
