{
	"asset":{
		"generator":"Khronos glTF Blender I/O v4.0.44",
		"version":"2.0"
	},
	"scene":0,
	"scenes":[
		{
			"name":"Scene",
			"nodes":[
				3,
				8
			]
		}
	],
	"nodes":[
		{
			"name":"EstacaoTotal_Tripe_Perna2.001",
			"rotation":[
				-0.70710688829422,
				0,
				0,
				0.7071066498756409
			],
			"scale":[
				100.00000762939453,
				99.99999237060547,
				99.99999237060547
			]
		},
		{
			"children":[
				0
			],
			"name":"RootNode.001"
		},
		{
			"children":[
				1
			],
			"name":"7cdf199cd2fa41978917bc877d679b45.fbx.001",
			"rotation":[
				0.70710688829422,
				0,
				0,
				0.7071066498756409
			]
		},
		{
			"children":[
				2
			],
			"name":"Sketchfab_model.001",
			"rotation":[
				0,
				-0.7071068286895752,
				-0.7071068286895752,
				3.090862321641907e-08
			],
			"scale":[
				0.6290309429168701,
				0.6290308237075806,
				0.6290308237075806
			],
			"translation":[
				0,
				-1.299147605895996,
				0
			]
		},
		{
			"mesh":0,
			"name":"EstacaoTotal_Tripe_Perna2_Cores_0.001",
			"scale":[
				0.12935757637023926,
				0.12935757637023926,
				0.12935757637023926
			]
		},
		{
			"children":[
				4
			],
			"name":"EstacaoTotal_Tripe_Perna2",
			"rotation":[
				-0.70710688829422,
				0,
				0,
				0.7071066498756409
			],
			"scale":[
				100.00000762939453,
				99.99999237060547,
				99.99999237060547
			]
		},
		{
			"children":[
				5
			],
			"name":"RootNode"
		},
		{
			"children":[
				6
			],
			"name":"7cdf199cd2fa41978917bc877d679b45.fbx",
			"rotation":[
				0.70710688829422,
				0,
				0,
				0.7071066498756409
			]
		},
		{
			"children":[
				7
			],
			"name":"Sketchfab_model",
			"rotation":[
				0,
				-0.7071068286895752,
				-0.7071068286895752,
				3.090862321641907e-08
			],
			"scale":[
				0.6290309429168701,
				0.6290308237075806,
				0.6290308237075806
			],
			"translation":[
				0,
				-1.299147605895996,
				0
			]
		}
	],
	"materials":[
		{
			"doubleSided":true,
			"name":"Cores",
			"pbrMetallicRoughness":{
				"baseColorTexture":{
					"index":0
				},
				"metallicFactor":0.4455626904964447,
				"roughnessFactor":0.8211145401000977
			}
		}
	],
	"meshes":[
		{
			"name":"EstacaoTotal_Tripe_Perna2_Cores_0.001",
			"primitives":[
				{
					"attributes":{
						"POSITION":0,
						"NORMAL":1,
						"TEXCOORD_0":2
					},
					"indices":3,
					"material":0
				}
			]
		}
	],
	"textures":[
		{
			"sampler":0,
			"source":0
		}
	],
	"images":[
		{
			"mimeType":"image/jpeg",
			"name":"Cores_baseColor",
			"uri":"Cores_baseColor.jpg"
		}
	],
	"accessors":[
		{
			"bufferView":0,
			"componentType":5126,
			"count":1092,
			"max":[
				0.05210987105965614,
				0.06954124569892883,
				0.22877943515777588
			],
			"min":[
				-0.04921310395002365,
				-0.08336788415908813,
				0.09253847599029541
			],
			"type":"VEC3"
		},
		{
			"bufferView":1,
			"componentType":5126,
			"count":1092,
			"type":"VEC3"
		},
		{
			"bufferView":2,
			"componentType":5126,
			"count":1092,
			"type":"VEC2"
		},
		{
			"bufferView":3,
			"componentType":5123,
			"count":1410,
			"type":"SCALAR"
		}
	],
	"bufferViews":[
		{
			"buffer":0,
			"byteLength":13104,
			"byteOffset":0,
			"target":34962
		},
		{
			"buffer":0,
			"byteLength":13104,
			"byteOffset":13104,
			"target":34962
		},
		{
			"buffer":0,
			"byteLength":8736,
			"byteOffset":26208,
			"target":34962
		},
		{
			"buffer":0,
			"byteLength":2820,
			"byteOffset":34944,
			"target":34963
		}
	],
	"samplers":[
		{
			"magFilter":9729,
			"minFilter":9987
		}
	],
	"buffers":[
		{
			"byteLength":37764,
			"uri":"3.bin"
		}
	]
}
