{
	"asset":{
		"generator":"Khronos glTF Blender I/O v4.0.44",
		"version":"2.0"
	},
	"extensionsUsed":[
		"KHR_materials_specular",
		"KHR_materials_ior"
	],
	"scene":0,
	"scenes":[
		{
			"name":"Scene",
			"nodes":[
				0,
				1
			]
		}
	],
	"nodes":[
		{
			"mesh":0,
			"name":"Cylinder",
			"scale":[
				1.7484090328216553,
				5.245226860046387,
				1.7484090328216553
			],
			"translation":[
				0,
				-1.0812373161315918,
				0
			]
		},
		{
			"mesh":1,
			"name":"Cylinder.001",
			"scale":[
				1.7484090328216553,
				1.7484090328216553,
				1.7484090328216553
			],
			"translation":[
				0,
				3.97066593170166,
				0
			]
		}
	],
	"materials":[
		{
			"doubleSided":true,
			"name":"Material.001",
			"pbrMetallicRoughness":{
				"metallicFactor":0,
				"roughnessFactor":0.7036363482475281
			}
		},
		{
			"doubleSided":true,
			"extensions":{
				"KHR_materials_specular":{
					"specularColorFactor":[
						1.1963636875152588,
						1.1963636875152588,
						1.1963636875152588
					]
				},
				"KHR_materials_ior":{
					"ior":1
				}
			},
			"name":"Material.002",
			"pbrMetallicRoughness":{
				"baseColorFactor":[
					0.48106861114501953,
					0.49528592824935913,
					0.5095032453536987,
					1
				],
				"roughnessFactor":0.18545454740524292
			}
		}
	],
	"meshes":[
		{
			"name":"Cylinder",
			"primitives":[
				{
					"attributes":{
						"POSITION":0,
						"NORMAL":1,
						"TEXCOORD_0":2
					},
					"indices":3,
					"material":0
				}
			]
		},
		{
			"name":"Cylinder.002",
			"primitives":[
				{
					"attributes":{
						"POSITION":4,
						"NORMAL":5,
						"TEXCOORD_0":6
					},
					"indices":7,
					"material":1
				}
			]
		}
	],
	"accessors":[
		{
			"bufferView":0,
			"componentType":5126,
			"count":452,
			"max":[
				1,
				1.006800651550293,
				1
			],
			"min":[
				-1,
				-1,
				-1
			],
			"type":"VEC3"
		},
		{
			"bufferView":1,
			"componentType":5126,
			"count":452,
			"type":"VEC3"
		},
		{
			"bufferView":2,
			"componentType":5126,
			"count":452,
			"type":"VEC2"
		},
		{
			"bufferView":3,
			"componentType":5123,
			"count":756,
			"type":"SCALAR"
		},
		{
			"bufferView":4,
			"componentType":5126,
			"count":48,
			"max":[
				0.10000002384185791,
				0.3700000047683716,
				0.10000002384185791
			],
			"min":[
				-0.10000002384185791,
				-0.3700000047683716,
				-0.10000002384185791
			],
			"type":"VEC3"
		},
		{
			"bufferView":5,
			"componentType":5126,
			"count":48,
			"type":"VEC3"
		},
		{
			"bufferView":6,
			"componentType":5126,
			"count":48,
			"type":"VEC2"
		},
		{
			"bufferView":7,
			"componentType":5123,
			"count":84,
			"type":"SCALAR"
		}
	],
	"bufferViews":[
		{
			"buffer":0,
			"byteLength":5424,
			"byteOffset":0,
			"target":34962
		},
		{
			"buffer":0,
			"byteLength":5424,
			"byteOffset":5424,
			"target":34962
		},
		{
			"buffer":0,
			"byteLength":3616,
			"byteOffset":10848,
			"target":34962
		},
		{
			"buffer":0,
			"byteLength":1512,
			"byteOffset":14464,
			"target":34963
		},
		{
			"buffer":0,
			"byteLength":576,
			"byteOffset":15976,
			"target":34962
		},
		{
			"buffer":0,
			"byteLength":576,
			"byteOffset":16552,
			"target":34962
		},
		{
			"buffer":0,
			"byteLength":384,
			"byteOffset":17128,
			"target":34962
		},
		{
			"buffer":0,
			"byteLength":168,
			"byteOffset":17512,
			"target":34963
		}
	],
	"buffers":[
		{
			"byteLength":17680,
			"uri":"pilye.bin"
		}
	]
}
