{
	"asset":{
		"generator":"Khronos glTF Blender I/O v4.0.44",
		"version":"2.0"
	},
	"extensionsUsed":[
		"KHR_materials_specular",
		"KHR_materials_ior",
		"KHR_materials_clearcoat",
		"KHR_materials_transmission"
	],
	"scene":0,
	"scenes":[
		{
			"name":"Scene",
			"nodes":[
				0,
				1,
				2,
				3,
				4,
				5,
				6,
				7
			]
		}
	],
	"nodes":[
		{
			"mesh":0,
			"name":"Cube.001",
			"rotation":[
				0,
				-0.7071068286895752,
				0,
				0.7071067094802856
			],
			"scale":[
				0.030466614291071892,
				1.006733775138855,
				1.2881970405578613
			],
			"translation":[
				-0.008364047855138779,
				0.23669791221618652,
				-0.004383344203233719
			]
		},
		{
			"mesh":1,
			"name":"Cube.002",
			"rotation":[
				0,
				-0.7071068286895752,
				0,
				0.7071067094802856
			],
			"scale":[
				0.3695976734161377,
				0.6131977438926697,
				0.6131978034973145
			],
			"translation":[
				-0.3062358796596527,
				-0.6778839826583862,
				-0.10488161444664001
			]
		},
		{
			"mesh":2,
			"name":"Cylinder",
			"rotation":[
				-0.5,
				0.5000000596046448,
				-0.5000000596046448,
				0.5
			],
			"scale":[
				-0.3747016489505768,
				-0.17655636370182037,
				-0.3747016489505768
			],
			"translation":[
				0.0005711913108825684,
				0.08067727088928223,
				0.047826264053583145
			]
		},
		{
			"mesh":3,
			"name":"Cylinder.001",
			"rotation":[
				-0.5,
				0.5000000596046448,
				-0.5000000596046448,
				0.5
			],
			"scale":[
				-0.3339255452156067,
				-0.08161482214927673,
				-0.3339255452156067
			],
			"translation":[
				-0.0034518390893936157,
				0.08687615394592285,
				0.15484046936035156
			]
		},
		{
			"mesh":4,
			"name":"Cylinder.002",
			"rotation":[
				0,
				-0.7071068286895752,
				0,
				0.7071067094802856
			],
			"scale":[
				-0.08255056291818619,
				-0.08255055546760559,
				-0.08255056291818619
			],
			"translation":[
				0.02315584570169449,
				-0.8789328336715698,
				-0.10006842762231827
			]
		},
		{
			"mesh":5,
			"name":"Cylinder.003",
			"rotation":[
				0,
				-0.7071068286895752,
				0,
				0.7071067094802856
			],
			"scale":[
				0.11865902692079544,
				0.05996885150671005,
				0.11865902692079544
			],
			"translation":[
				0.02315584570169449,
				-1.190499186515808,
				-0.11083648353815079
			]
		},
		{
			"mesh":6,
			"name":"Cylinder.004",
			"rotation":[
				0,
				-0.7071068286895752,
				0,
				0.7071067094802856
			],
			"scale":[
				0.16530285775661469,
				0.1653028428554535,
				0.16530285775661469
			],
			"translation":[
				0.20055779814720154,
				-3.213914394378662,
				0.08617380261421204
			]
		},
		{
			"mesh":7,
			"name":"Cylinder.005",
			"rotation":[
				0,
				-0.70710688829422,
				0,
				0.7071067094802856
			],
			"scale":[
				0.12185294926166534,
				0.12185293436050415,
				0.12185294926166534
			],
			"translation":[
				0.18076780438423157,
				-3.177381992340088,
				0.10641932487487793
			]
		}
	],
	"materials":[
		{
			"doubleSided":true,
			"extensions":{
				"KHR_materials_specular":{
					"specularColorFactor":[
						0.0,
						1.0,
						0.0019400090677663684
					]
				},
				"KHR_materials_ior":{
					"ior":11.249999046325684
				}
			},
			"name":"Material.001",
			"pbrMetallicRoughness":{
				"baseColorFactor":[
					0.8002749681472778,
					0.1949879676103592,
					0.12213622778654099,
					1
				],
				"roughnessFactor":0.29818183183670044
			}
		},
		{
			"doubleSided":true,
			"name":"Material.002",
			"pbrMetallicRoughness":{
				"baseColorFactor":[
					0.9101580381393433,
					0.8797973990440369,
					0.02852935530245304,
					1
				],
				"metallicFactor":0.3163636326789856,
				"roughnessFactor":0.34727272391319275
			}
		},
		{
			"doubleSided":true,
			"name":"Material.003",
			"pbrMetallicRoughness":{
				"baseColorFactor":[
					0,
					0,
					0,
					1
				],
				"metallicFactor":0,
				"roughnessFactor":0.5
			}
		},
		{
			"doubleSided":true,
			"name":"Material.004",
			"pbrMetallicRoughness":{
				"baseColorFactor":[
					0.004312534816563129,
					0.0056101372465491295,
					1,
					1
				],
				"metallicFactor":0.9418181777000427,
				"roughnessFactor":0
			}
		},
		{
			"doubleSided":true,
			"extensions":{
				"KHR_materials_specular":{
					"specularColorFactor":[
						0.9707355499267578,
						0.9780068397521973,
						1.0
					]
				},
				"KHR_materials_ior":{
					"ior":6.449999809265137
				}
			},
			"name":"Material.005",
			"pbrMetallicRoughness":{
				"baseColorFactor":[
					0.7485170364379883,
					0.7839865684509277,
					0.8000229597091675,
					1
				],
				"roughnessFactor":0.2781818211078644
			}
		},
		{
			"doubleSided":true,
			"extensions":{
				"KHR_materials_clearcoat":{
					"clearcoatFactor":0.5163636207580566,
					"clearcoatRoughnessFactor":0.5063636302947998
				},
				"KHR_materials_transmission":{
					"transmissionFactor":1
				},
				"KHR_materials_specular":{
					"specularColorFactor":[
						0.054488614201545715,
						1.0,
						0.08185392618179321
					]
				},
				"KHR_materials_ior":{
					"ior":9.349998474121094
				}
			},
			"name":"Material.006",
			"pbrMetallicRoughness":{
				"baseColorFactor":[
					0.8000074625015259,
					0.2204228937625885,
					0.09578350186347961,
					1
				]
			}
		},
		{
			"doubleSided":true,
			"name":"Material.007",
			"pbrMetallicRoughness":{
				"baseColorFactor":[
					0.025797948241233826,
					0.025797948241233826,
					0.025797948241233826,
					1
				],
				"metallicFactor":0.8290908932685852,
				"roughnessFactor":0.5
			}
		},
		{
			"doubleSided":true,
			"name":"Material.008",
			"pbrMetallicRoughness":{
				"baseColorFactor":[
					0.026093829423189163,
					0.01606050878763199,
					1,
					1
				],
				"roughnessFactor":0.04363636672496796
			}
		}
	],
	"meshes":[
		{
			"name":"Cube.001",
			"primitives":[
				{
					"attributes":{
						"POSITION":0,
						"NORMAL":1,
						"TEXCOORD_0":2
					},
					"indices":3,
					"material":0
				}
			]
		},
		{
			"name":"Cube.002",
			"primitives":[
				{
					"attributes":{
						"POSITION":4,
						"NORMAL":5,
						"TEXCOORD_0":6
					},
					"indices":7,
					"material":1
				}
			]
		},
		{
			"name":"Cylinder",
			"primitives":[
				{
					"attributes":{
						"POSITION":8,
						"NORMAL":9,
						"TEXCOORD_0":10
					},
					"indices":11,
					"material":2
				}
			]
		},
		{
			"name":"Cylinder.001",
			"primitives":[
				{
					"attributes":{
						"POSITION":12,
						"NORMAL":13,
						"TEXCOORD_0":14
					},
					"indices":15,
					"material":3
				}
			]
		},
		{
			"name":"Cylinder.002",
			"primitives":[
				{
					"attributes":{
						"POSITION":16,
						"NORMAL":17,
						"TEXCOORD_0":18
					},
					"indices":19,
					"material":4
				}
			]
		},
		{
			"name":"Cylinder.003",
			"primitives":[
				{
					"attributes":{
						"POSITION":20,
						"NORMAL":21,
						"TEXCOORD_0":22
					},
					"indices":23,
					"material":5
				}
			]
		},
		{
			"name":"Cylinder.004",
			"primitives":[
				{
					"attributes":{
						"POSITION":24,
						"NORMAL":25,
						"TEXCOORD_0":26
					},
					"indices":27,
					"material":6
				}
			]
		},
		{
			"name":"Cylinder.005",
			"primitives":[
				{
					"attributes":{
						"POSITION":28,
						"NORMAL":29,
						"TEXCOORD_0":30
					},
					"indices":31,
					"material":7
				}
			]
		}
	],
	"accessors":[
		{
			"bufferView":0,
			"componentType":5126,
			"count":53,
			"max":[
				1.0000020265579224,
				1,
				1
			],
			"min":[
				-1,
				-1,
				-1
			],
			"type":"VEC3"
		},
		{
			"bufferView":1,
			"componentType":5126,
			"count":53,
			"type":"VEC3"
		},
		{
			"bufferView":2,
			"componentType":5126,
			"count":53,
			"type":"VEC2"
		},
		{
			"bufferView":3,
			"componentType":5123,
			"count":216,
			"type":"SCALAR"
		},
		{
			"bufferView":4,
			"componentType":5126,
			"count":98,
			"max":[
				0.25,
				1.0658726692199707,
				0.4454795718193054
			],
			"min":[
				-0.2499999701976776,
				-0.1786428987979889,
				-1.4454796314239502
			],
			"type":"VEC3"
		},
		{
			"bufferView":5,
			"componentType":5126,
			"count":98,
			"type":"VEC3"
		},
		{
			"bufferView":6,
			"componentType":5126,
			"count":98,
			"type":"VEC2"
		},
		{
			"bufferView":7,
			"componentType":5123,
			"count":342,
			"type":"SCALAR"
		},
		{
			"bufferView":8,
			"componentType":5126,
			"count":196,
			"max":[
				1,
				1.0824371576309204,
				1
			],
			"min":[
				-1,
				-1,
				-1
			],
			"type":"VEC3"
		},
		{
			"bufferView":9,
			"componentType":5126,
			"count":196,
			"type":"VEC3"
		},
		{
			"bufferView":10,
			"componentType":5126,
			"count":196,
			"type":"VEC2"
		},
		{
			"bufferView":11,
			"componentType":5123,
			"count":756,
			"type":"SCALAR"
		},
		{
			"bufferView":12,
			"componentType":5126,
			"count":130,
			"max":[
				1,
				1,
				1
			],
			"min":[
				-1,
				-1,
				-1
			],
			"type":"VEC3"
		},
		{
			"bufferView":13,
			"componentType":5126,
			"count":130,
			"type":"VEC3"
		},
		{
			"bufferView":14,
			"componentType":5126,
			"count":130,
			"type":"VEC2"
		},
		{
			"bufferView":15,
			"componentType":5123,
			"count":372,
			"type":"SCALAR"
		},
		{
			"bufferView":16,
			"componentType":5126,
			"count":674,
			"max":[
				2.1383755207061768,
				2.9323840141296387,
				2.1383755207061768
			],
			"min":[
				-2.1383755207061768,
				-1,
				-2.1383755207061768
			],
			"type":"VEC3"
		},
		{
			"bufferView":17,
			"componentType":5126,
			"count":674,
			"type":"VEC3"
		},
		{
			"bufferView":18,
			"componentType":5126,
			"count":674,
			"type":"VEC2"
		},
		{
			"bufferView":19,
			"componentType":5123,
			"count":1140,
			"type":"SCALAR"
		},
		{
			"bufferView":20,
			"componentType":5126,
			"count":362,
			"max":[
				1.4418258666992188,
				1,
				1.441823959350586
			],
			"min":[
				-1.4418244361877441,
				-203.53469848632812,
				-1.441823959350586
			],
			"type":"VEC3"
		},
		{
			"bufferView":21,
			"componentType":5126,
			"count":362,
			"type":"VEC3"
		},
		{
			"bufferView":22,
			"componentType":5126,
			"count":362,
			"type":"VEC2"
		},
		{
			"bufferView":23,
			"componentType":5123,
			"count":1818,
			"type":"SCALAR"
		},
		{
			"bufferView":24,
			"componentType":5126,
			"count":223,
			"max":[
				1,
				1.1551194190979004,
				2.2554502487182617
			],
			"min":[
				-2.2554502487182617,
				-1,
				-1
			],
			"type":"VEC3"
		},
		{
			"bufferView":25,
			"componentType":5126,
			"count":223,
			"type":"VEC3"
		},
		{
			"bufferView":26,
			"componentType":5126,
			"count":223,
			"type":"VEC2"
		},
		{
			"bufferView":27,
			"componentType":5123,
			"count":876,
			"type":"SCALAR"
		},
		{
			"bufferView":28,
			"componentType":5126,
			"count":192,
			"max":[
				1,
				1,
				1
			],
			"min":[
				-1,
				-1,
				-1
			],
			"type":"VEC3"
		},
		{
			"bufferView":29,
			"componentType":5126,
			"count":192,
			"type":"VEC3"
		},
		{
			"bufferView":30,
			"componentType":5126,
			"count":192,
			"type":"VEC2"
		},
		{
			"bufferView":31,
			"componentType":5123,
			"count":372,
			"type":"SCALAR"
		}
	],
	"bufferViews":[
		{
			"buffer":0,
			"byteLength":636,
			"byteOffset":0,
			"target":34962
		},
		{
			"buffer":0,
			"byteLength":636,
			"byteOffset":636,
			"target":34962
		},
		{
			"buffer":0,
			"byteLength":424,
			"byteOffset":1272,
			"target":34962
		},
		{
			"buffer":0,
			"byteLength":432,
			"byteOffset":1696,
			"target":34963
		},
		{
			"buffer":0,
			"byteLength":1176,
			"byteOffset":2128,
			"target":34962
		},
		{
			"buffer":0,
			"byteLength":1176,
			"byteOffset":3304,
			"target":34962
		},
		{
			"buffer":0,
			"byteLength":784,
			"byteOffset":4480,
			"target":34962
		},
		{
			"buffer":0,
			"byteLength":684,
			"byteOffset":5264,
			"target":34963
		},
		{
			"buffer":0,
			"byteLength":2352,
			"byteOffset":5948,
			"target":34962
		},
		{
			"buffer":0,
			"byteLength":2352,
			"byteOffset":8300,
			"target":34962
		},
		{
			"buffer":0,
			"byteLength":1568,
			"byteOffset":10652,
			"target":34962
		},
		{
			"buffer":0,
			"byteLength":1512,
			"byteOffset":12220,
			"target":34963
		},
		{
			"buffer":0,
			"byteLength":1560,
			"byteOffset":13732,
			"target":34962
		},
		{
			"buffer":0,
			"byteLength":1560,
			"byteOffset":15292,
			"target":34962
		},
		{
			"buffer":0,
			"byteLength":1040,
			"byteOffset":16852,
			"target":34962
		},
		{
			"buffer":0,
			"byteLength":744,
			"byteOffset":17892,
			"target":34963
		},
		{
			"buffer":0,
			"byteLength":8088,
			"byteOffset":18636,
			"target":34962
		},
		{
			"buffer":0,
			"byteLength":8088,
			"byteOffset":26724,
			"target":34962
		},
		{
			"buffer":0,
			"byteLength":5392,
			"byteOffset":34812,
			"target":34962
		},
		{
			"buffer":0,
			"byteLength":2280,
			"byteOffset":40204,
			"target":34963
		},
		{
			"buffer":0,
			"byteLength":4344,
			"byteOffset":42484,
			"target":34962
		},
		{
			"buffer":0,
			"byteLength":4344,
			"byteOffset":46828,
			"target":34962
		},
		{
			"buffer":0,
			"byteLength":2896,
			"byteOffset":51172,
			"target":34962
		},
		{
			"buffer":0,
			"byteLength":3636,
			"byteOffset":54068,
			"target":34963
		},
		{
			"buffer":0,
			"byteLength":2676,
			"byteOffset":57704,
			"target":34962
		},
		{
			"buffer":0,
			"byteLength":2676,
			"byteOffset":60380,
			"target":34962
		},
		{
			"buffer":0,
			"byteLength":1784,
			"byteOffset":63056,
			"target":34962
		},
		{
			"buffer":0,
			"byteLength":1752,
			"byteOffset":64840,
			"target":34963
		},
		{
			"buffer":0,
			"byteLength":2304,
			"byteOffset":66592,
			"target":34962
		},
		{
			"buffer":0,
			"byteLength":2304,
			"byteOffset":68896,
			"target":34962
		},
		{
			"buffer":0,
			"byteLength":1536,
			"byteOffset":71200,
			"target":34962
		},
		{
			"buffer":0,
			"byteLength":744,
			"byteOffset":72736,
			"target":34963
		}
	],
	"buffers":[
		{
			"byteLength":73480,
			"uri":"reflektor.bin"
		}
	]
}
