{
	"asset":{
		"generator":"Khronos glTF Blender I/O v4.0.44",
		"version":"2.0"
	},
	"extensionsUsed":[
		"KHR_materials_specular"
	],
	"scene":0,
	"scenes":[
		{
			"name":"Scene",
			"nodes":[
				8
			]
		}
	],
	"nodes":[
		{
			"mesh":0,
			"name":"Object_2"
		},
		{
			"mesh":1,
			"name":"Object_3"
		},
		{
			"mesh":2,
			"name":"Object_4"
		},
		{
			"mesh":3,
			"name":"Object_5"
		},
		{
			"mesh":4,
			"name":"Object_6"
		},
		{
			"mesh":5,
			"name":"Object_7"
		},
		{
			"mesh":6,
			"name":"Object_8"
		},
		{
			"children":[
				0,
				1,
				2,
				3,
				4,
				5,
				6
			],
			"name":"CorruptedMire_obj.obj.cleaner.materialmerger.gles"
		},
		{
			"children":[
				7
			],
			"name":"Sketchfab_model",
			"rotation":[
				1,
				0,
				0,
				0
			],
			"scale":[
				-633.8082275390625,
				-633.8082275390625,
				-633.8082275390625
			],
			"translation":[
				0,
				130.99253845214844,
				0
			]
		}
	],
	"materials":[
		{
			"doubleSided":true,
			"extensions":{
				"KHR_materials_specular":{
					"specularTexture":{
						"index":0
					}
				}
			},
			"name":"material_0",
			"normalTexture":{
				"index":1
			},
			"pbrMetallicRoughness":{
				"baseColorTexture":{
					"index":2
				},
				"metallicFactor":0,
				"metallicRoughnessTexture":{
					"index":3
				}
			}
		}
	],
	"meshes":[
		{
			"name":"Object_0",
			"primitives":[
				{
					"attributes":{
						"POSITION":0,
						"NORMAL":1,
						"TEXCOORD_0":2
					},
					"indices":3,
					"material":0
				}
			]
		},
		{
			"name":"Object_1",
			"primitives":[
				{
					"attributes":{
						"POSITION":4,
						"NORMAL":5,
						"TEXCOORD_0":6
					},
					"indices":7,
					"material":0
				}
			]
		},
		{
			"name":"Object_2",
			"primitives":[
				{
					"attributes":{
						"POSITION":8,
						"NORMAL":9,
						"TEXCOORD_0":10
					},
					"indices":11,
					"material":0
				}
			]
		},
		{
			"name":"Object_3",
			"primitives":[
				{
					"attributes":{
						"POSITION":12,
						"NORMAL":13,
						"TEXCOORD_0":14
					},
					"indices":15,
					"material":0
				}
			]
		},
		{
			"name":"Object_4",
			"primitives":[
				{
					"attributes":{
						"POSITION":16,
						"NORMAL":17,
						"TEXCOORD_0":18
					},
					"indices":19,
					"material":0
				}
			]
		},
		{
			"name":"Object_5",
			"primitives":[
				{
					"attributes":{
						"POSITION":20,
						"NORMAL":21,
						"TEXCOORD_0":22
					},
					"indices":23,
					"material":0
				}
			]
		},
		{
			"name":"Object_6",
			"primitives":[
				{
					"attributes":{
						"POSITION":24,
						"NORMAL":25,
						"TEXCOORD_0":26
					},
					"indices":27,
					"material":0
				}
			]
		}
	],
	"textures":[
		{
			"sampler":0,
			"source":0
		},
		{
			"sampler":0,
			"source":1
		},
		{
			"sampler":0,
			"source":2
		},
		{
			"sampler":0,
			"source":3
		}
	],
	"images":[
		{
			"mimeType":"image/png",
			"name":"material_0_specularf0",
			"uri":"material_0_specularf0.png"
		},
		{
			"mimeType":"image/png",
			"name":"material_0_normal",
			"uri":"material_0_normal.png"
		},
		{
			"mimeType":"image/png",
			"name":"material_0_baseColor",
			"uri":"material_0_baseColor.png"
		},
		{
			"mimeType":"image/png",
			"name":"material_0_metallicRoughness",
			"uri":"material_0_metallicRoughness.png"
		}
	],
	"accessors":[
		{
			"bufferView":0,
			"componentType":5126,
			"count":65587,
			"max":[
				0.5,
				-0.16841700673103333,
				0.5
			],
			"min":[
				-0.5,
				-0.2426230013370514,
				-0.5
			],
			"type":"VEC3"
		},
		{
			"bufferView":1,
			"componentType":5126,
			"count":65587,
			"type":"VEC3"
		},
		{
			"bufferView":2,
			"componentType":5126,
			"count":65587,
			"type":"VEC2"
		},
		{
			"bufferView":3,
			"componentType":5125,
			"count":335181,
			"type":"SCALAR"
		},
		{
			"bufferView":4,
			"componentType":5126,
			"count":65897,
			"max":[
				0.5,
				-0.1672070026397705,
				0.4782240092754364
			],
			"min":[
				-0.498324990272522,
				-0.23696500062942505,
				-0.20854300260543823
			],
			"type":"VEC3"
		},
		{
			"bufferView":5,
			"componentType":5126,
			"count":65897,
			"type":"VEC3"
		},
		{
			"bufferView":6,
			"componentType":5126,
			"count":65897,
			"type":"VEC2"
		},
		{
			"bufferView":7,
			"componentType":5125,
			"count":312579,
			"type":"SCALAR"
		},
		{
			"bufferView":8,
			"componentType":5126,
			"count":65709,
			"max":[
				0.5,
				-0.17024900019168854,
				0.28559499979019165
			],
			"min":[
				-0.498324990272522,
				-0.22270900011062622,
				-0.5
			],
			"type":"VEC3"
		},
		{
			"bufferView":9,
			"componentType":5126,
			"count":65709,
			"type":"VEC3"
		},
		{
			"bufferView":10,
			"componentType":5126,
			"count":65709,
			"type":"VEC2"
		},
		{
			"bufferView":11,
			"componentType":5125,
			"count":311124,
			"type":"SCALAR"
		},
		{
			"bufferView":12,
			"componentType":5126,
			"count":65573,
			"max":[
				0.5,
				-0.18054500222206116,
				-0.06448899954557419
			],
			"min":[
				-0.4899500012397766,
				-0.22311900556087494,
				-0.5
			],
			"type":"VEC3"
		},
		{
			"bufferView":13,
			"componentType":5126,
			"count":65573,
			"type":"VEC3"
		},
		{
			"bufferView":14,
			"componentType":5126,
			"count":65573,
			"type":"VEC2"
		},
		{
			"bufferView":15,
			"componentType":5125,
			"count":332223,
			"type":"SCALAR"
		},
		{
			"bufferView":16,
			"componentType":5126,
			"count":65603,
			"max":[
				0.5,
				-0.17969700694084167,
				0.022613000124692917
			],
			"min":[
				-0.49665001034736633,
				-0.22301499545574188,
				-0.5
			],
			"type":"VEC3"
		},
		{
			"bufferView":17,
			"componentType":5126,
			"count":65603,
			"type":"VEC3"
		},
		{
			"bufferView":18,
			"componentType":5126,
			"count":65603,
			"type":"VEC2"
		},
		{
			"bufferView":19,
			"componentType":5125,
			"count":326796,
			"type":"SCALAR"
		},
		{
			"bufferView":20,
			"componentType":5126,
			"count":65840,
			"max":[
				0.5,
				-0.1714390069246292,
				0.2001670002937317
			],
			"min":[
				-0.49162501096725464,
				-0.22762799263000488,
				-0.1415410041809082
			],
			"type":"VEC3"
		},
		{
			"bufferView":21,
			"componentType":5126,
			"count":65840,
			"type":"VEC3"
		},
		{
			"bufferView":22,
			"componentType":5126,
			"count":65840,
			"type":"VEC2"
		},
		{
			"bufferView":23,
			"componentType":5125,
			"count":339768,
			"type":"SCALAR"
		},
		{
			"bufferView":24,
			"componentType":5126,
			"count":38486,
			"max":[
				0.5,
				-0.17139199376106262,
				0.23031799495220184
			],
			"min":[
				-0.49665001034736633,
				-0.22857199609279633,
				0.04103900119662285
			],
			"type":"VEC3"
		},
		{
			"bufferView":25,
			"componentType":5126,
			"count":38486,
			"type":"VEC3"
		},
		{
			"bufferView":26,
			"componentType":5126,
			"count":38486,
			"type":"VEC2"
		},
		{
			"bufferView":27,
			"componentType":5123,
			"count":180783,
			"type":"SCALAR"
		}
	],
	"bufferViews":[
		{
			"buffer":0,
			"byteLength":787044,
			"byteOffset":0,
			"target":34962
		},
		{
			"buffer":0,
			"byteLength":787044,
			"byteOffset":787044,
			"target":34962
		},
		{
			"buffer":0,
			"byteLength":524696,
			"byteOffset":1574088,
			"target":34962
		},
		{
			"buffer":0,
			"byteLength":1340724,
			"byteOffset":2098784,
			"target":34963
		},
		{
			"buffer":0,
			"byteLength":790764,
			"byteOffset":3439508,
			"target":34962
		},
		{
			"buffer":0,
			"byteLength":790764,
			"byteOffset":4230272,
			"target":34962
		},
		{
			"buffer":0,
			"byteLength":527176,
			"byteOffset":5021036,
			"target":34962
		},
		{
			"buffer":0,
			"byteLength":1250316,
			"byteOffset":5548212,
			"target":34963
		},
		{
			"buffer":0,
			"byteLength":788508,
			"byteOffset":6798528,
			"target":34962
		},
		{
			"buffer":0,
			"byteLength":788508,
			"byteOffset":7587036,
			"target":34962
		},
		{
			"buffer":0,
			"byteLength":525672,
			"byteOffset":8375544,
			"target":34962
		},
		{
			"buffer":0,
			"byteLength":1244496,
			"byteOffset":8901216,
			"target":34963
		},
		{
			"buffer":0,
			"byteLength":786876,
			"byteOffset":10145712,
			"target":34962
		},
		{
			"buffer":0,
			"byteLength":786876,
			"byteOffset":10932588,
			"target":34962
		},
		{
			"buffer":0,
			"byteLength":524584,
			"byteOffset":11719464,
			"target":34962
		},
		{
			"buffer":0,
			"byteLength":1328892,
			"byteOffset":12244048,
			"target":34963
		},
		{
			"buffer":0,
			"byteLength":787236,
			"byteOffset":13572940,
			"target":34962
		},
		{
			"buffer":0,
			"byteLength":787236,
			"byteOffset":14360176,
			"target":34962
		},
		{
			"buffer":0,
			"byteLength":524824,
			"byteOffset":15147412,
			"target":34962
		},
		{
			"buffer":0,
			"byteLength":1307184,
			"byteOffset":15672236,
			"target":34963
		},
		{
			"buffer":0,
			"byteLength":790080,
			"byteOffset":16979420,
			"target":34962
		},
		{
			"buffer":0,
			"byteLength":790080,
			"byteOffset":17769500,
			"target":34962
		},
		{
			"buffer":0,
			"byteLength":526720,
			"byteOffset":18559580,
			"target":34962
		},
		{
			"buffer":0,
			"byteLength":1359072,
			"byteOffset":19086300,
			"target":34963
		},
		{
			"buffer":0,
			"byteLength":461832,
			"byteOffset":20445372,
			"target":34962
		},
		{
			"buffer":0,
			"byteLength":461832,
			"byteOffset":20907204,
			"target":34962
		},
		{
			"buffer":0,
			"byteLength":307888,
			"byteOffset":21369036,
			"target":34962
		},
		{
			"buffer":0,
			"byteLength":361566,
			"byteOffset":21676924,
			"target":34963
		}
	],
	"samplers":[
		{
			"magFilter":9729,
			"minFilter":9987
		}
	],
	"buffers":[
		{
			"byteLength":22038492,
			"uri":"scene.bin"
		}
	]
}
